<svg width="228" height="68" viewBox="0 0 228 68" fill="none" xmlns="http://www.w3.org/2000/svg">
<path fill-rule="evenodd" clip-rule="evenodd" d="M77.3576 67.8973C69.1181 68.1293 60.0129 68.4665 54.5128 62.7131C48.7491 56.6838 47.9454 47.6212 50.6151 39.923C53.0343 32.9471 60.0833 28.9257 67.2519 25.9792C74.0147 23.1994 81.4022 21.8565 88.2467 24.455C95.6727 27.2742 102.003 32.6743 104.023 39.9394C106.113 47.452 104.064 55.6843 98.5429 61.473C93.3392 66.9289 85.1631 67.6774 77.3576 67.8973Z" fill="#78C081" fill-opacity="0.15"/>
<path d="M91.0934 33.3338V17.1563H99.3902C101.41 17.1563 102.87 17.5877 103.772 18.4505C104.688 19.2979 105.147 20.6691 105.147 22.5642C105.147 24.4593 104.688 25.8382 103.772 26.701C102.87 27.5638 101.41 27.9952 99.3902 27.9952H94.3795V33.3338H91.0934ZM94.3795 24.9446H99.2037C100.136 24.9446 100.812 24.7597 101.231 24.3899C101.666 24.0048 101.884 23.3962 101.884 22.5642C101.884 21.7476 101.666 21.1544 101.231 20.7847C100.812 20.3995 100.136 20.2069 99.2037 20.2069H94.3795V24.9446Z" fill="#495E4C"/>
<path d="M111.121 33.5418C109.552 33.5418 108.394 33.2491 107.649 32.6636C106.918 32.0627 106.553 31.1075 106.553 29.7979C106.553 28.4574 106.957 27.5022 107.765 26.9321C108.573 26.3467 109.878 26.0539 111.681 26.0539H115.316C115.254 25.2373 114.998 24.6519 114.547 24.2975C114.112 23.9277 113.428 23.7428 112.496 23.7428C110.989 23.7428 110.104 24.2744 109.839 25.3375H106.81C106.996 23.8584 107.548 22.7876 108.464 22.1251C109.381 21.4472 110.764 21.1082 112.613 21.1082C114.633 21.1082 116.101 21.5242 117.017 22.3562C117.934 23.1728 118.393 24.4978 118.393 26.3313V33.3338H115.316V32.2014C114.431 33.095 113.032 33.5418 111.121 33.5418ZM109.63 29.6592C109.63 30.4912 110.383 30.9072 111.89 30.9072C112.947 30.9072 113.739 30.7223 114.267 30.3525C114.811 29.9674 115.161 29.3742 115.316 28.573V28.2957H112.496C110.585 28.2957 109.63 28.7502 109.63 29.6592Z" fill="#495E4C"/>
<path d="M120.549 29.4974H123.579C123.874 30.4373 124.861 30.9072 126.539 30.9072C128.155 30.9072 128.962 30.5836 128.962 29.9365C128.962 29.3511 127.945 28.9197 125.909 28.6423C124.014 28.4266 122.67 28.026 121.878 27.4406C121.085 26.8397 120.689 25.9461 120.689 24.7597C120.689 23.5117 121.109 22.595 121.948 22.0095C122.786 21.4087 124.115 21.1082 125.933 21.1082C127.813 21.1082 129.211 21.4318 130.128 22.0789C131.06 22.7106 131.611 23.7351 131.782 25.1526H128.753C128.582 24.6596 128.271 24.3052 127.82 24.0895C127.385 23.8584 126.741 23.7428 125.886 23.7428C124.41 23.7428 123.672 24.0433 123.672 24.6442C123.672 25.1988 124.604 25.5994 126.469 25.8459C128.52 26.1387 129.941 26.5624 130.734 27.117C131.526 27.6563 131.922 28.5114 131.922 29.6823C131.922 30.9765 131.479 31.9472 130.594 32.5943C129.724 33.226 128.341 33.5418 126.445 33.5418C124.581 33.5418 123.175 33.2183 122.227 32.5712C121.279 31.9241 120.72 30.8995 120.549 29.4974Z" fill="#495E4C"/>
<path d="M139.65 33.5418C137.521 33.5418 135.975 33.0565 135.012 32.0858C134.064 31.0998 133.59 29.5128 133.59 27.325C133.59 25.1526 134.072 23.5734 135.035 22.5873C135.998 21.6012 137.537 21.1082 139.65 21.1082C141.576 21.1082 143.021 21.5011 143.984 22.2869C144.948 23.0572 145.515 24.2975 145.686 26.0077H142.656C142.485 25.2836 142.167 24.7597 141.701 24.4362C141.234 24.1126 140.574 23.9508 139.72 23.9508C138.647 23.9508 137.863 24.2205 137.366 24.7597C136.884 25.2836 136.643 26.1387 136.643 27.325C136.643 28.496 136.884 29.3511 137.366 29.8903C137.863 30.4296 138.647 30.6992 139.72 30.6992C141.366 30.6992 142.345 30.0136 142.656 28.6423H145.686C145.515 30.3525 144.948 31.6005 143.984 32.3863C143.021 33.1566 141.576 33.5418 139.65 33.5418Z" fill="#495E4C"/>
<path d="M151.951 33.5418C150.382 33.5418 149.225 33.2491 148.479 32.6636C147.749 32.0627 147.383 31.1075 147.383 29.7979C147.383 28.4574 147.787 27.5022 148.595 26.9321C149.403 26.3467 150.708 26.0539 152.511 26.0539H156.146C156.084 25.2373 155.828 24.6519 155.377 24.2975C154.942 23.9277 154.259 23.7428 153.326 23.7428C151.819 23.7428 150.934 24.2744 150.669 25.3375H147.64C147.826 23.8584 148.378 22.7876 149.294 22.1251C150.211 21.4472 151.594 21.1082 153.443 21.1082C155.463 21.1082 156.931 21.5242 157.848 22.3562C158.764 23.1728 159.223 24.4978 159.223 26.3313V33.3338H156.146V32.2014C155.261 33.095 153.862 33.5418 151.951 33.5418ZM150.46 29.6592C150.46 30.4912 151.213 30.9072 152.72 30.9072C153.777 30.9072 154.569 30.7223 155.098 30.3525C155.641 29.9674 155.991 29.3742 156.146 28.573V28.2957H153.326C151.415 28.2957 150.46 28.7502 150.46 29.6592Z" fill="#495E4C"/>
<path d="M161.892 33.3338V16.0007H164.968V33.3338H161.892Z" fill="#495E4C"/>
<path d="M172.908 17.1563H176.381L181.974 29.9134L187.544 17.1563H191.04L183.815 33.3338H180.133L172.908 17.1563Z" fill="#495E4C"/>
<path d="M192.844 32.0627C191.865 31.0767 191.376 29.4974 191.376 27.325C191.376 25.1526 191.865 23.5734 192.844 22.5873C193.823 21.6012 195.408 21.1082 197.598 21.1082C199.774 21.1082 201.343 21.6012 202.306 22.5873C203.285 23.5734 203.774 25.1526 203.774 27.325C203.774 27.5407 203.759 27.8643 203.728 28.2957H194.522C194.724 30.0367 195.757 30.9072 197.622 30.9072C199.02 30.9072 199.945 30.4373 200.395 29.4974H203.565C203.254 30.9919 202.594 32.0396 201.584 32.6405C200.574 33.2414 199.245 33.5418 197.598 33.5418C195.408 33.5418 193.823 33.0488 192.844 32.0627ZM197.622 23.7428C196.752 23.7428 196.06 23.92 195.548 24.2744C195.035 24.6288 194.709 25.2142 194.569 26.0308H200.675C200.535 25.2142 200.209 24.6288 199.696 24.2744C199.199 23.92 198.507 23.7428 197.622 23.7428Z" fill="#495E4C"/>
<path d="M209.007 33.3338H205.931V21.3162H209.007V22.518C209.815 21.5781 211.12 21.1082 212.923 21.1082C214.632 21.1082 215.875 21.5396 216.652 22.4024C217.444 23.2652 217.84 24.6519 217.84 26.5624V33.3338H214.764V26.5624C214.764 25.6533 214.539 24.9908 214.088 24.5748C213.653 24.1588 212.962 23.9508 212.014 23.9508C210.942 23.9508 210.173 24.2205 209.707 24.7597C209.24 25.2836 209.007 26.1387 209.007 27.325V33.3338Z" fill="#495E4C"/>
<path d="M224.481 21.3162H227.79V24.1588H224.481V28.781C224.481 29.3819 224.621 29.821 224.901 30.0983C225.18 30.3602 225.646 30.4912 226.299 30.4912H228V33.3338H226.206C224.528 33.3338 223.308 33.0026 222.547 32.3401C221.785 31.6776 221.405 30.6145 221.405 29.1508V24.1588H219.634V21.3162H221.405V18.7047H224.481V21.3162Z" fill="#495E4C"/>
<path d="M93.9419 50.898H97.2357V52.788H93.9419V61.5803H91.9117V52.788H90.0059V50.898H91.9117V50.5282C91.9117 48.9944 92.2501 47.8782 92.9268 47.1798C93.6035 46.4813 94.6877 46.1321 96.1792 46.1321H97.36V48.022H96.2828C95.468 48.022 94.8741 48.2206 94.5012 48.6178C94.1283 49.0149 93.9419 49.6517 93.9419 50.5282V50.898Z" fill="#78C081"/>
<path d="M103.044 61.5803H101.014V50.898H103.044V52.2744C103.748 51.2472 104.977 50.7337 106.731 50.7337H107.663V52.6236H106.151C105.046 52.6236 104.252 52.9112 103.769 53.4864C103.285 54.0479 103.044 54.9655 103.044 56.2392V61.5803Z" fill="#78C081"/>
<path d="M111.852 60.4299C110.996 59.5534 110.567 58.1565 110.567 56.2392C110.567 54.3218 110.996 52.9249 111.852 52.0484C112.722 51.1719 114.124 50.7337 116.057 50.7337C117.977 50.7337 119.358 51.1719 120.2 52.0484C121.057 52.9249 121.485 54.3218 121.485 56.2392C121.485 56.3077 121.478 56.4104 121.464 56.5473C121.464 56.6843 121.464 56.787 121.464 56.8555H112.639C112.708 57.9237 113.019 58.7112 113.571 59.2179C114.137 59.7246 114.973 59.978 116.078 59.978C117.694 59.978 118.723 59.4302 119.165 58.3346H121.278C120.988 59.5945 120.394 60.4779 119.496 60.9846C118.612 61.4913 117.466 61.7447 116.057 61.7447C114.124 61.7447 112.722 61.3064 111.852 60.4299ZM116.078 52.5004C115.042 52.5004 114.241 52.7263 113.675 53.1783C113.122 53.6165 112.791 54.3355 112.68 55.3353H119.455C119.344 54.3218 119.013 53.596 118.46 53.1577C117.922 52.7195 117.127 52.5004 116.078 52.5004Z" fill="#78C081"/>
<path d="M125.051 58.3346H127.06C127.24 58.9098 127.585 59.3275 128.096 59.5877C128.607 59.8479 129.332 59.978 130.271 59.978C132.108 59.978 133.026 59.5397 133.026 58.6632C133.026 58.2661 132.778 57.9511 132.281 57.7183C131.783 57.4855 130.982 57.2869 129.878 57.1225C128.179 56.9034 126.977 56.5473 126.273 56.0543C125.582 55.5476 125.237 54.808 125.237 53.8357C125.237 52.7948 125.603 52.021 126.335 51.5143C127.067 50.9939 128.22 50.7337 129.795 50.7337C131.369 50.7337 132.557 51.0076 133.358 51.5554C134.159 52.0895 134.656 52.9523 134.849 54.1438H132.84C132.66 53.5686 132.329 53.1509 131.846 52.8907C131.362 52.6305 130.665 52.5004 129.753 52.5004C128.055 52.5004 127.205 52.9181 127.205 53.7535C127.205 54.137 127.447 54.4451 127.93 54.6779C128.414 54.897 129.18 55.0888 130.23 55.2531C132.011 55.527 133.247 55.8968 133.938 56.3624C134.642 56.8281 134.994 57.5402 134.994 58.4989C134.994 60.6628 133.399 61.7447 130.209 61.7447C128.621 61.7447 127.412 61.4708 126.584 60.923C125.755 60.3752 125.244 59.5124 125.051 58.3346Z" fill="#78C081"/>
<path d="M139.143 46.1731H141.173V52.336C141.919 51.2678 143.224 50.7337 145.089 50.7337C146.649 50.7337 147.789 51.1103 148.507 51.8635C149.225 52.6168 149.584 53.8151 149.584 55.4585V61.5803H147.575V55.4585C147.575 54.4725 147.326 53.7535 146.829 53.3015C146.332 52.8496 145.558 52.6236 144.509 52.6236C143.335 52.6236 142.485 52.9112 141.961 53.4864C141.436 54.0479 141.173 54.9655 141.173 56.2392V61.5803H139.143V46.1731Z" fill="#78C081"/>
<path d="M165.304 61.7447C163.868 61.7447 162.818 61.4913 162.156 60.9846C161.493 60.4779 161.161 59.663 161.161 58.54C161.161 57.3759 161.527 56.5473 162.259 56.0543C163.005 55.5476 164.199 55.2942 165.843 55.2942H169.51C169.51 54.3218 169.261 53.6165 168.764 53.1783C168.267 52.7263 167.473 52.5004 166.382 52.5004C165.511 52.5004 164.842 52.6442 164.372 52.9318C163.903 53.2057 163.585 53.6508 163.419 54.2671H161.41C161.603 53.0345 162.1 52.1374 162.901 51.5759C163.702 51.0144 164.89 50.7337 166.464 50.7337C168.232 50.7337 169.517 51.0966 170.318 51.8225C171.132 52.5346 171.54 53.6782 171.54 55.2531V61.5803H169.51V60.204C168.695 61.2311 167.293 61.7447 165.304 61.7447ZM163.191 58.4578C163.191 58.9919 163.398 59.3822 163.813 59.6288C164.241 59.8616 164.897 59.978 165.781 59.978C166.955 59.978 167.832 59.7657 168.412 59.3412C169.006 58.9166 169.372 58.2387 169.51 57.3074V56.8144H166.361C164.248 56.8144 163.191 57.3622 163.191 58.4578Z" fill="#78C081"/>
<path d="M176.221 61.5803V50.898H178.251V61.5803H176.221ZM176.2 48.8232C175.993 48.6178 175.889 48.2754 175.889 47.796C175.889 47.3167 175.993 46.9743 176.2 46.7689C176.407 46.5635 176.752 46.4608 177.236 46.4608C177.719 46.4608 178.064 46.5635 178.272 46.7689C178.479 46.9743 178.582 47.3167 178.582 47.796C178.582 48.2754 178.479 48.6178 178.272 48.8232C178.064 49.0286 177.719 49.1313 177.236 49.1313C176.752 49.1313 176.407 49.0286 176.2 48.8232Z" fill="#78C081"/>
<path d="M185.006 61.5803H182.976V50.898H185.006V52.2744C185.711 51.2472 186.94 50.7337 188.694 50.7337H189.626V52.6236H188.114C187.009 52.6236 186.215 52.9112 185.731 53.4864C185.248 54.0479 185.006 54.9655 185.006 56.2392V61.5803Z" fill="#78C081"/>
<path fill-rule="evenodd" clip-rule="evenodd" d="M2.83245 26.2235C0.20306 35.5268 -0.398343 45.2764 0.227535 54.8502C-0.0556833 57.8938 1.61216 60.8326 3.82895 62.9293C7.07373 65.9796 13.4654 65.5637 17.6612 65.1342C25.3011 64.4105 28.6997 57.4914 29.1473 50.8259C29.4899 39.3042 29.5739 27.1975 29.5494 15.6555C29.5441 15.3268 29.5448 14.9818 29.5455 14.6271C29.5487 13.1062 29.5522 11.4078 29.0843 10.0586C27.948 6.29134 24.413 4.93863 20.8605 5.66233C20.1426 5.8883 19.4512 6.18639 18.7976 6.55174C16.6642 7.69909 14.6704 9.07389 12.8535 10.6504C9.22099 13.7515 6.33207 17.582 4.3884 21.8745C4.1964 22.2632 4.00156 22.7939 3.82115 23.2852C3.71901 23.5634 3.6215 23.829 3.53175 24.049C3.34597 24.5046 3.15627 25.1419 2.9905 25.6989C2.93476 25.8862 2.88172 26.0644 2.83245 26.2235ZM0.227535 54.8502C1.33593 45.1073 2.89538 35.405 6.44436 26.2337C8.36979 21.4023 11.5749 17.1454 15.7381 13.8902C16.1197 13.5718 16.6857 13.1596 17.147 12.8236C17.2395 12.7563 17.3277 12.692 17.4095 12.6322C17.4095 12.6322 20.2696 10.2108 21.8186 10.0789C23.3675 9.94703 24.2172 10.0553 24.5668 11.7191L24.6752 12.5138L24.6997 13.3931C24.6752 17.3802 24.6577 24.7491 24.6997 28.8072C24.7522 34.661 24.8221 40.5149 24.9619 46.3653L25.0564 50.6331C25.0406 51.9629 24.8836 53.2877 24.5878 54.5864C23.9165 57.6605 22.2102 60.6533 19.1158 61.864C17.1227 62.5708 14.9584 62.8481 12.8605 63.0916C10.4024 63.3013 7.82898 63.4264 5.55973 62.4389C2.78699 60.8359 0.549215 58.0595 0.227535 54.8502Z" fill="#78C081"/>
<path d="M62.465 28.7916C63.8083 32.0915 66.2555 37.2502 67.1011 43.4478C66.495 32.1225 65.706 32.0915 65.3155 30.3551C64.6904 27.5755 63.8542 24.8444 62.8136 22.1841C59.8313 15.3257 54.4868 9.68092 47.6903 6.21114C47.1118 5.89813 46.4836 5.68077 45.8313 5.56802C45.4574 5.54771 45.2408 5.48679 44.7201 5.48679C41.1734 5.29047 38.4898 7.54138 37.8783 10.845C37.5568 12.2768 37.6442 14.0335 37.6442 15.445C37.6022 23.1048 37.5848 32.6094 37.7141 40.3133C37.7665 43.0821 37.8014 45.8509 37.8783 48.6197C37.8661 50.1147 37.983 51.6081 38.2277 53.0842C39.3983 59.7896 43.3049 64.9718 50.7687 65.2696C54.4797 65.5303 58.4387 65.6826 61.8911 64.0511C64.5992 62.599 65.7018 60.1457 66.495 57.4378C67.0136 55.6674 67.7162 53.8557 70.6675 50.9616C67.7162 52.6981 66.7393 53.5718 64.765 58.4863C62.1198 62.8595 60.2208 63.3944 55.2799 63.0932C53.9028 62.9899 52.533 62.8091 51.1776 62.5516C49.9476 62.3113 48.6023 62.0811 47.5016 61.5023C44.1086 59.8201 42.7074 56.0426 42.3125 52.5359C42.1765 51.2654 42.1449 49.9864 42.2182 48.711C42.337 43.8911 42.4768 36.9758 42.4768 32.0915C42.4768 27.2072 42.5502 20.2311 42.4768 15.4179C42.4908 13.9929 42.1798 11.813 42.931 10.608C43.4622 9.74151 44.33 9.47203 45.7649 10.1375C51.8315 13.0044 56.7884 17.6813 59.9063 23.4805C60.8147 25.2968 61.8839 27.364 62.465 28.7916Z" fill="#78C081"/>
<path d="M33.8799 13.63C34.1264 13.1353 33.9219 12.5361 33.4231 12.2915C32.9242 12.047 32.32 12.2498 32.0735 12.7445L27.3138 22.2959C27.0673 22.7906 27.2718 23.3898 27.7706 23.6344C28.2695 23.8789 28.8737 23.6761 29.1202 23.1814L33.8799 13.63Z" fill="#78C081"/>
<path d="M32.6864 13.63C32.4398 13.1353 32.6444 12.5361 33.1432 12.2915C33.642 12.047 34.2462 12.2498 34.4928 12.7445L39.2525 22.2959C39.499 22.7906 39.2944 23.3898 38.7956 23.6344C38.2968 23.8789 37.6926 23.6761 37.4461 23.1814L32.6864 13.63Z" fill="#78C081"/>
<path d="M32.24 0.999084C32.24 0.447304 32.6911 0 33.2475 0C33.8039 0 34.255 0.447306 34.255 0.999085V13.6571C34.255 14.2089 33.8039 14.6562 33.2475 14.6562C32.6911 14.6562 32.24 14.2089 32.24 13.6571V0.999084Z" fill="#78C081"/>
<path d="M63.3725 61.4331C63.0646 60.8379 62.7533 60.289 62.4358 59.7404C62.1183 59.1918 61.795 58.6509 61.456 58.1085C61.1169 57.5662 60.7606 57.0491 60.4139 56.5338C60.3237 56.3992 60.2218 56.2774 60.1256 56.148C60.0295 56.0185 59.9245 55.8969 59.8191 55.7705C59.7138 55.6441 59.5995 55.5254 59.4813 55.395C59.4252 55.332 59.3637 55.272 59.2973 55.2154C59.2337 55.1541 59.1671 55.093 59.1064 55.0267C59.5156 55.1094 59.8997 55.2491 60.2402 55.4391C60.4125 55.5312 60.5762 55.6325 60.7302 55.7421C60.8873 55.8492 61.036 55.9634 61.1756 56.0842C61.7287 56.5599 62.1906 57.0951 62.5481 57.6743C62.9088 58.248 63.1754 58.8561 63.3417 59.4849C63.5265 60.1213 63.537 60.7847 63.3725 61.4331Z" fill="#78C081"/>
<path d="M63.0779 55.0016C62.795 54.3273 62.3314 53.7342 61.7309 53.2781C61.1539 52.8337 60.4948 52.4901 59.7846 52.2635C59.0685 52.0428 58.3281 51.8941 57.5757 51.8199C56.8152 51.7348 56.0347 51.6947 55.2445 51.656L55.9033 51.0028C56.0304 51.9559 56.1795 52.9031 56.2842 53.8592C56.3477 54.3358 56.3925 54.8178 56.4708 55.2591C56.501 55.4855 56.5492 55.7004 56.6066 55.9111C56.6663 56.1223 56.7417 56.3291 56.8325 56.53C57.2024 57.3471 57.7942 58.0577 58.5505 58.5927C59.3432 59.1619 60.2798 59.534 61.2745 59.675C60.201 59.799 59.1185 59.6048 58.1811 59.12C57.2019 58.6267 56.4033 57.8751 55.883 56.9576C55.7538 56.7225 55.6429 56.4788 55.5513 56.2283C55.463 55.9839 55.3927 55.7339 55.3408 55.4801C55.2268 54.9677 55.1637 54.4941 55.0889 54.0311C54.9382 53.072 54.8115 52.1219 54.6844 51.1688L54.5899 50.4599L55.3465 50.5152C56.1586 50.5713 56.9662 50.6676 57.7659 50.8039C58.5891 50.9384 59.3874 51.1751 60.1398 51.5078C60.9021 51.8457 61.5763 52.3315 62.1181 52.9333C62.6573 53.5124 62.9921 54.2338 63.0779 55.0016Z" fill="#78C081"/>
<path d="M64.4537 54.6314C64.1925 54.2057 64.0094 53.7302 63.9165 53.2364C63.8221 52.7361 63.791 52.2298 63.8243 51.733C63.9109 50.7398 64.1551 49.7887 64.5455 48.9242C64.9283 48.0429 65.4291 47.2424 66.0318 46.5483C66.3479 46.1918 66.7019 45.8808 67.0873 45.6212C67.4692 45.3733 67.8716 45.1637 68.2905 44.9947C68.7007 44.8175 69.1176 44.6852 69.5286 44.5596C69.9396 44.4341 70.344 44.3248 70.7556 44.2132C71.5706 44.0021 72.3661 43.7927 73.1172 43.5224C73.8416 43.2757 74.5226 42.9122 75.1403 42.4425C75.7912 41.9557 76.3162 41.29 76.6727 40.4998C76.94 39.841 77.1628 39.1449 77.4085 38.4695C77.3402 38.6666 77.5656 39.3617 77.6036 39.5994C77.8093 40.8683 77.8979 42.1457 77.8677 43.4105C77.8585 44.2416 77.7984 45.0655 77.6878 45.8764L77.6378 46.1901L77.4637 47.0826C77.3824 47.4727 77.2938 47.8651 77.1855 48.2593C76.9623 49.0621 76.6269 49.8091 76.1913 50.4736C75.9737 50.7995 75.7344 51.1052 75.4751 51.3884C75.2106 51.664 74.9463 51.916 74.6742 52.1564C74.1291 52.6385 73.5492 53.0703 72.9392 53.4484C71.7272 54.2022 70.4013 54.727 69.0085 55.0039C70.2621 54.4301 71.439 53.6872 72.5158 52.79C73.0456 52.3503 73.547 51.8703 74.0171 51.353C74.4813 50.8605 74.8937 50.309 75.2476 49.7076C75.5707 49.1097 75.8054 48.45 75.9434 47.7519C76.02 47.3964 76.085 47.0305 76.1423 46.6531L76.2249 46.0832L76.2673 45.7956L76.3008 45.5298C76.3708 44.7809 76.4015 44.024 76.3928 43.2627C76.392 42.4891 76.8362 43.235 76.085 43.8357C75.3487 44.4053 74.5281 44.8341 73.6523 45.1068C72.814 45.3822 71.9716 45.5598 71.154 45.7387C70.3364 45.9176 69.5182 46.0826 68.7696 46.3238C68.4015 46.4377 68.0456 46.5878 67.7057 46.7724C67.3705 46.957 67.0585 47.1861 66.7757 47.4554C66.179 48.0142 65.6618 48.6717 65.2388 49.409C64.7949 50.1433 64.4675 50.9666 64.2697 51.8463C64.0512 52.7418 64.116 53.7239 64.4537 54.6314Z" fill="#78C081"/>
</svg>
