<svg width="54" height="76" viewBox="0 0 54 76" fill="none" xmlns="http://www.w3.org/2000/svg">
<g opacity="0.85">
<path d="M48.9307 1.14539C50.273 7.78032 41.9509 29.9067 26.3805 41.5178C17.004 48.6633 9.43582 57.8826 4.27759 68.4426V68.8277C6.72352 63.7034 31.9882 62.9036 46.7234 46.8198C61.1604 31.0618 49.6168 2.6264 48.9307 1.14539Z" fill="url(#paint0_linear_86_200)"/>
<path d="M26.3807 41.3993C41.9213 29.7882 50.2733 7.66184 48.931 1.14539C45.9481 12.8158 21.1011 20.3393 11.3173 30.2621C-1.41941 43.1173 3.50228 65.2732 4.30765 68.5315C9.43003 57.8994 16.9897 48.607 26.3807 41.3993Z" fill="url(#paint1_linear_86_200)"/>
<path d="M10.0051 58.046L23.3682 57.8683L10.2437 58.9346C10.082 58.9384 9.92325 58.8919 9.78954 58.8016C9.65584 58.7113 9.55389 58.5818 9.49797 58.4311C9.47508 58.3627 9.46822 58.29 9.47789 58.2186C9.48756 58.1471 9.51352 58.0788 9.55379 58.0188C9.59406 57.9588 9.64757 57.9088 9.71026 57.8724C9.77296 57.8361 9.84317 57.8144 9.91557 57.8091L10.0051 58.046Z" fill="url(#paint2_linear_86_200)"/>
<path d="M15.7617 51.2625L31.3023 50.9071L16.0003 52.1215C15.8367 52.1352 15.6733 52.0927 15.5376 52.001C15.4018 51.9093 15.3019 51.7741 15.2546 51.618C15.2309 51.5513 15.2235 51.48 15.2331 51.4099C15.2427 51.3398 15.269 51.273 15.3099 51.2151C15.3507 51.1571 15.4049 51.1097 15.4679 51.0768C15.531 51.0438 15.601 51.0263 15.6722 51.0256L15.7617 51.2625Z" fill="url(#paint3_linear_86_200)"/>
<path d="M23.0103 43.7094L38.1632 44.4795H23.249C23.0889 44.4714 22.9357 44.4123 22.8121 44.3109C22.6886 44.2095 22.6012 44.0713 22.5629 43.9167C22.5496 43.8475 22.552 43.7762 22.5699 43.708C22.5879 43.6398 22.6209 43.5764 22.6666 43.5225C22.7124 43.4686 22.7696 43.4255 22.8342 43.3964C22.8989 43.3672 22.9692 43.3527 23.0402 43.354L23.0103 43.7094Z" fill="url(#paint4_linear_86_200)"/>
<path d="M29.9902 37.8151L46.0976 33.9645L30.378 38.6445C30.2199 38.6753 30.056 38.6545 29.9108 38.585C29.7656 38.5156 29.647 38.4014 29.5726 38.2594C29.5383 38.1983 29.5181 38.1305 29.5133 38.0607C29.5085 37.991 29.5194 37.921 29.545 37.8559C29.5707 37.7908 29.6105 37.7321 29.6617 37.6841C29.7129 37.6361 29.7742 37.5999 29.8411 37.5781L29.9902 37.8151Z" fill="url(#paint5_linear_86_200)"/>
<path d="M35.9559 31.6539L48.6032 26.3223H48.7821L36.6718 32.424C36.522 32.4884 36.3546 32.4999 36.1972 32.4568C36.0399 32.4137 35.9022 32.3186 35.8068 32.1871C35.7765 32.0935 35.7745 31.9931 35.801 31.8983C35.8275 31.8036 35.8813 31.7186 35.9559 31.6539Z" fill="url(#paint6_linear_86_200)"/>
<path d="M41.7423 22.2645L48.066 19.1544C48.066 19.1544 48.066 19.1544 48.2151 19.1544L42.5179 23.2124C42.3853 23.2962 42.2259 23.3276 42.0712 23.3001C41.9165 23.2727 41.7778 23.1885 41.6827 23.0643C41.6211 23.0204 41.5709 22.9626 41.5363 22.8956C41.5017 22.8287 41.4836 22.7545 41.4836 22.6792C41.4836 22.604 41.5017 22.5298 41.5363 22.4628C41.5709 22.3959 41.6211 22.338 41.6827 22.2942L41.7423 22.2645Z" fill="url(#paint7_linear_86_200)"/>
<path d="M7.05186 45.3387L10.6909 57.4238C10.7147 57.4905 10.722 57.5618 10.7124 57.6319C10.7028 57.702 10.6765 57.7688 10.6356 57.8267C10.5948 57.8847 10.5406 57.9321 10.4776 57.965C10.4146 57.998 10.3445 58.0155 10.2733 58.0162C10.1097 58.0299 9.94636 57.9874 9.81059 57.8957C9.67483 57.804 9.57492 57.6688 9.52762 57.5127L6.81323 45.3091C6.85123 45.289 6.89455 45.2811 6.93727 45.2864C6.97999 45.2917 7.02001 45.31 7.05186 45.3387Z" fill="url(#paint8_linear_86_200)"/>
<path d="M13.8826 38.6147L17.4024 50.6702C17.4203 50.739 17.4224 50.811 17.4085 50.8808C17.3946 50.9506 17.3651 51.0163 17.3221 51.0732C17.2792 51.1301 17.2238 51.1767 17.1603 51.2095C17.0967 51.2423 17.0265 51.2604 16.955 51.2626C16.7952 51.2749 16.6361 51.2313 16.5054 51.1393C16.3746 51.0473 16.2804 50.9128 16.2391 50.759L13.6738 38.6444L13.8826 38.6147Z" fill="url(#paint9_linear_86_200)"/>
<path d="M19.9083 33.1943L23.2789 43.9465C23.3018 44.0149 23.3087 44.0876 23.299 44.159C23.2893 44.2305 23.2634 44.2988 23.2231 44.3588C23.1828 44.4187 23.1293 44.4688 23.0666 44.5051C23.0039 44.5415 22.9337 44.5632 22.8613 44.5685C22.6987 44.5769 22.5378 44.5323 22.4031 44.4413C22.2685 44.3504 22.1675 44.2182 22.1156 44.065L19.6697 33.2239C19.6697 33.2239 19.8785 33.1351 19.9083 33.1943Z" fill="url(#paint10_linear_86_200)"/>
<path d="M26.3213 26.2039L31.3922 37.4892C31.4203 37.555 31.434 37.6259 31.4324 37.6973C31.4308 37.7687 31.414 37.839 31.3829 37.9034C31.3519 37.9678 31.3074 38.025 31.2524 38.071C31.1975 38.1171 31.1333 38.151 31.0641 38.1705C30.903 38.1941 30.7385 38.1667 30.594 38.0923C30.4494 38.0179 30.3321 37.9002 30.2587 37.7558L26.1125 26.2336C26.1363 26.2021 26.1716 26.1814 26.2108 26.1758C26.2302 26.1731 26.2499 26.1741 26.2689 26.1789C26.2878 26.1838 26.3057 26.1923 26.3213 26.2039Z" fill="url(#paint11_linear_86_200)"/>
<path d="M33.8978 21.6129L37.0894 31.4765C37.1123 31.5449 37.1192 31.6176 37.1095 31.689C37.0999 31.7605 37.0739 31.8288 37.0336 31.8888C36.9934 31.9488 36.9398 31.9988 36.8772 32.0352C36.8145 32.0715 36.7442 32.0932 36.6719 32.0985C36.5129 32.109 36.3547 32.0686 36.2205 31.9833C36.0863 31.8981 35.9831 31.7723 35.9261 31.6246L33.6592 21.6722C33.6875 21.6385 33.7259 21.6146 33.7688 21.604C33.8117 21.5933 33.8568 21.5965 33.8978 21.6129Z" fill="url(#paint12_linear_86_200)"/>
<path d="M39.8331 15.9554L42.816 22.7088C42.8438 22.7765 42.8564 22.8494 42.8529 22.9225C42.8495 22.9955 42.83 23.0669 42.796 23.1318C42.7619 23.1966 42.714 23.2533 42.6557 23.2979C42.5973 23.3425 42.5299 23.3739 42.458 23.39C42.2977 23.4093 42.1355 23.3765 41.9956 23.2963C41.8558 23.2162 41.7459 23.0932 41.6825 22.9457L39.5945 15.9554C39.6084 15.937 39.6264 15.922 39.6471 15.9118C39.6678 15.9015 39.6906 15.8961 39.7138 15.8961C39.737 15.8961 39.7598 15.9015 39.7805 15.9118C39.8012 15.922 39.8192 15.937 39.8331 15.9554Z" fill="url(#paint13_linear_86_200)"/>
<path d="M0.698454 73.389V73.1521L0.96691 72.4412C1.23537 71.8488 1.5933 70.9602 2.10039 69.8938C3.49631 66.9049 5.08035 64.0063 6.84311 61.2151C9.35106 57.2868 12.1953 53.5804 15.3442 50.1371C17.1315 48.1807 19.0339 46.3311 21.0414 44.5981L22.6223 43.2652L24.2331 41.9619L27.544 39.4738C29.6531 37.781 31.6461 35.9504 33.5097 33.9941C35.2558 32.1242 36.8797 30.1455 38.3718 28.07C40.9823 24.2772 43.1725 20.2154 44.9042 15.9554C46.1948 12.9526 47.2422 9.8524 48.0362 6.68421C48.3345 5.4994 48.5433 4.58118 48.6626 3.95915L48.8415 3.0113C48.8415 2.8632 48.8415 2.80396 49.11 2.83358C49.3784 2.8632 49.3486 3.0113 49.3188 3.12978C49.289 3.24826 49.3188 3.48522 49.1696 4.10725C49.0205 4.72927 48.9012 5.70674 48.6327 6.86193C47.8582 10.0758 46.8615 13.2329 45.6499 16.3108C43.9586 20.6419 41.8088 24.7823 39.2368 28.6624C37.772 30.836 36.1679 32.9137 34.4344 34.8827C32.5891 36.9395 30.5952 38.86 28.4687 40.629L25.2472 43.1764L23.6962 44.4797L22.1749 45.8126C20.2577 47.5718 18.4356 49.4306 16.7163 51.3812C13.6908 54.8241 10.9853 58.5319 8.63282 62.4591C6.94265 65.216 5.44762 68.0862 4.15855 71.049C3.6813 72.1153 3.35318 72.9447 3.14438 73.5371L2.87593 74.2184V74.4257C2.81289 74.5573 2.72336 74.6747 2.61287 74.7706C2.50238 74.8665 2.37327 74.9388 2.23352 74.9832C2.09376 75.0277 1.94632 75.0431 1.80029 75.0288C1.65427 75.0144 1.51276 74.9705 1.38451 74.8997C1.08864 74.8039 0.839229 74.6023 0.684842 74.334C0.530456 74.0657 0.482144 73.75 0.549311 73.4483L0.698454 73.389Z" fill="url(#paint14_linear_86_200)"/>
<path style="mix-blend-mode:screen" d="M48.9013 0.937988C45.9185 12.6084 21.0714 20.1319 11.2877 30.0547C-0.0172879 41.4289 2.57779 60.1489 3.86041 66.5172C3.20418 67.7613 2.63744 68.9165 2.19002 69.8939C1.74259 70.8714 1.32499 71.8489 1.05654 72.4413L0.788081 73.1522V73.3891C0.720913 73.6908 0.769226 74.0066 0.923612 74.2749C1.078 74.5432 1.32741 74.7448 1.62328 74.8405C1.75153 74.9113 1.89304 74.9553 2.03906 74.9696C2.18509 74.984 2.33253 74.9685 2.47229 74.9241C2.61204 74.8797 2.74115 74.8073 2.85164 74.7114C2.96213 74.6155 3.05166 74.4982 3.1147 74.3666V74.1593L3.38315 73.478C3.59195 72.8856 3.92007 72.0562 4.39732 70.9899C4.87458 69.9236 5.5308 68.5018 6.30634 66.9615C12.9581 63.1701 33.9275 60.8005 46.8432 46.7013C61.1906 31.0618 49.647 2.62634 48.961 1.02685L48.9013 0.937988Z" fill="url(#paint15_radial_86_200)"/>
</g>
<defs>
<linearGradient id="paint0_linear_86_200" x1="87.8053" y1="35.5062" x2="18.0207" y2="70.3388" gradientUnits="userSpaceOnUse">
<stop offset="0.08" stop-color="#B0E355"/>
<stop offset="0.21" stop-color="#ADE152"/>
<stop offset="0.32" stop-color="#A2DA4A"/>
<stop offset="0.42" stop-color="#91CE3B"/>
<stop offset="0.52" stop-color="#79BE27"/>
<stop offset="0.61" stop-color="#5AA90D"/>
<stop offset="0.65" stop-color="#4A9F00"/>
<stop offset="1" stop-color="#346D0A"/>
</linearGradient>
<linearGradient id="paint1_linear_86_200" x1="52.8163" y1="4.20346" x2="55.1403" y2="72.623" gradientUnits="userSpaceOnUse">
<stop offset="0.08" stop-color="#B0E355"/>
<stop offset="0.21" stop-color="#ADE152"/>
<stop offset="0.32" stop-color="#A2DA4A"/>
<stop offset="0.42" stop-color="#91CE3B"/>
<stop offset="0.52" stop-color="#79BE27"/>
<stop offset="0.61" stop-color="#5AA90D"/>
<stop offset="0.65" stop-color="#4A9F00"/>
<stop offset="1" stop-color="#346D0A"/>
</linearGradient>
<linearGradient id="paint2_linear_86_200" x1="100.203" y1="17.7049" x2="51.7051" y2="67.6742" gradientUnits="userSpaceOnUse">
<stop offset="0.08" stop-color="#B0E355"/>
<stop offset="0.21" stop-color="#ADE152"/>
<stop offset="0.32" stop-color="#A2DA4A"/>
<stop offset="0.42" stop-color="#91CE3B"/>
<stop offset="0.52" stop-color="#79BE27"/>
<stop offset="0.61" stop-color="#5AA90D"/>
<stop offset="0.65" stop-color="#4A9F00"/>
<stop offset="1" stop-color="#346D0A"/>
</linearGradient>
<linearGradient id="paint3_linear_86_200" x1="100.244" y1="17.7399" x2="51.733" y2="67.7121" gradientUnits="userSpaceOnUse">
<stop offset="0.08" stop-color="#B0E355"/>
<stop offset="0.21" stop-color="#ADE152"/>
<stop offset="0.32" stop-color="#A2DA4A"/>
<stop offset="0.42" stop-color="#91CE3B"/>
<stop offset="0.52" stop-color="#79BE27"/>
<stop offset="0.61" stop-color="#5AA90D"/>
<stop offset="0.65" stop-color="#4A9F00"/>
<stop offset="1" stop-color="#346D0A"/>
</linearGradient>
<linearGradient id="paint4_linear_86_200" x1="100.306" y1="17.8095" x2="51.8072" y2="67.7788" gradientUnits="userSpaceOnUse">
<stop offset="0.08" stop-color="#B0E355"/>
<stop offset="0.21" stop-color="#ADE152"/>
<stop offset="0.32" stop-color="#A2DA4A"/>
<stop offset="0.42" stop-color="#91CE3B"/>
<stop offset="0.52" stop-color="#79BE27"/>
<stop offset="0.61" stop-color="#5AA90D"/>
<stop offset="0.65" stop-color="#4A9F00"/>
<stop offset="1" stop-color="#346D0A"/>
</linearGradient>
<linearGradient id="paint5_linear_86_200" x1="100.104" y1="17.6111" x2="51.5977" y2="67.5758" gradientUnits="userSpaceOnUse">
<stop offset="0.08" stop-color="#B0E355"/>
<stop offset="0.21" stop-color="#ADE152"/>
<stop offset="0.32" stop-color="#A2DA4A"/>
<stop offset="0.42" stop-color="#91CE3B"/>
<stop offset="0.52" stop-color="#79BE27"/>
<stop offset="0.61" stop-color="#5AA90D"/>
<stop offset="0.65" stop-color="#4A9F00"/>
<stop offset="1" stop-color="#346D0A"/>
</linearGradient>
<linearGradient id="paint6_linear_86_200" x1="98.7243" y1="16.2641" x2="50.2183" y2="66.2287" gradientUnits="userSpaceOnUse">
<stop offset="0.08" stop-color="#B0E355"/>
<stop offset="0.21" stop-color="#ADE152"/>
<stop offset="0.32" stop-color="#A2DA4A"/>
<stop offset="0.42" stop-color="#91CE3B"/>
<stop offset="0.52" stop-color="#79BE27"/>
<stop offset="0.61" stop-color="#5AA90D"/>
<stop offset="0.65" stop-color="#4A9F00"/>
<stop offset="1" stop-color="#346D0A"/>
</linearGradient>
<linearGradient id="paint7_linear_86_200" x1="95.9019" y1="13.5209" x2="47.3987" y2="63.4978" gradientUnits="userSpaceOnUse">
<stop offset="0.08" stop-color="#B0E355"/>
<stop offset="0.21" stop-color="#ADE152"/>
<stop offset="0.32" stop-color="#A2DA4A"/>
<stop offset="0.42" stop-color="#91CE3B"/>
<stop offset="0.52" stop-color="#79BE27"/>
<stop offset="0.61" stop-color="#5AA90D"/>
<stop offset="0.65" stop-color="#4A9F00"/>
<stop offset="1" stop-color="#346D0A"/>
</linearGradient>
<linearGradient id="paint8_linear_86_200" x1="92.8443" y1="10.5478" x2="44.3335" y2="60.52" gradientUnits="userSpaceOnUse">
<stop offset="0.08" stop-color="#B0E355"/>
<stop offset="0.21" stop-color="#ADE152"/>
<stop offset="0.32" stop-color="#A2DA4A"/>
<stop offset="0.42" stop-color="#91CE3B"/>
<stop offset="0.52" stop-color="#79BE27"/>
<stop offset="0.61" stop-color="#5AA90D"/>
<stop offset="0.65" stop-color="#4A9F00"/>
<stop offset="1" stop-color="#346D0A"/>
</linearGradient>
<linearGradient id="paint9_linear_86_200" x1="92.9031" y1="10.605" x2="44.3924" y2="60.5772" gradientUnits="userSpaceOnUse">
<stop offset="0.08" stop-color="#B0E355"/>
<stop offset="0.21" stop-color="#ADE152"/>
<stop offset="0.32" stop-color="#A2DA4A"/>
<stop offset="0.42" stop-color="#91CE3B"/>
<stop offset="0.52" stop-color="#79BE27"/>
<stop offset="0.61" stop-color="#5AA90D"/>
<stop offset="0.65" stop-color="#4A9F00"/>
<stop offset="1" stop-color="#346D0A"/>
</linearGradient>
<linearGradient id="paint10_linear_86_200" x1="92.8958" y1="10.6004" x2="44.385" y2="60.5725" gradientUnits="userSpaceOnUse">
<stop offset="0.08" stop-color="#B0E355"/>
<stop offset="0.21" stop-color="#ADE152"/>
<stop offset="0.32" stop-color="#A2DA4A"/>
<stop offset="0.42" stop-color="#91CE3B"/>
<stop offset="0.52" stop-color="#79BE27"/>
<stop offset="0.61" stop-color="#5AA90D"/>
<stop offset="0.65" stop-color="#4A9F00"/>
<stop offset="1" stop-color="#346D0A"/>
</linearGradient>
<linearGradient id="paint11_linear_86_200" x1="93.2565" y1="10.9495" x2="44.7458" y2="60.9217" gradientUnits="userSpaceOnUse">
<stop offset="0.08" stop-color="#B0E355"/>
<stop offset="0.21" stop-color="#ADE152"/>
<stop offset="0.32" stop-color="#A2DA4A"/>
<stop offset="0.42" stop-color="#91CE3B"/>
<stop offset="0.52" stop-color="#79BE27"/>
<stop offset="0.61" stop-color="#5AA90D"/>
<stop offset="0.65" stop-color="#4A9F00"/>
<stop offset="1" stop-color="#346D0A"/>
</linearGradient>
<linearGradient id="paint12_linear_86_200" x1="93.96" y1="11.6264" x2="45.4446" y2="61.6062" gradientUnits="userSpaceOnUse">
<stop offset="0.08" stop-color="#B0E355"/>
<stop offset="0.21" stop-color="#ADE152"/>
<stop offset="0.32" stop-color="#A2DA4A"/>
<stop offset="0.42" stop-color="#91CE3B"/>
<stop offset="0.52" stop-color="#79BE27"/>
<stop offset="0.61" stop-color="#5AA90D"/>
<stop offset="0.65" stop-color="#4A9F00"/>
<stop offset="1" stop-color="#346D0A"/>
</linearGradient>
<linearGradient id="paint13_linear_86_200" x1="93.274" y1="10.9712" x2="44.7633" y2="60.9434" gradientUnits="userSpaceOnUse">
<stop offset="0.08" stop-color="#B0E355"/>
<stop offset="0.21" stop-color="#ADE152"/>
<stop offset="0.32" stop-color="#A2DA4A"/>
<stop offset="0.42" stop-color="#91CE3B"/>
<stop offset="0.52" stop-color="#79BE27"/>
<stop offset="0.61" stop-color="#5AA90D"/>
<stop offset="0.65" stop-color="#4A9F00"/>
<stop offset="1" stop-color="#346D0A"/>
</linearGradient>
<linearGradient id="paint14_linear_86_200" x1="95.1909" y1="12.8394" x2="46.6924" y2="62.8087" gradientUnits="userSpaceOnUse">
<stop offset="0.08" stop-color="#B0E355"/>
<stop offset="0.21" stop-color="#ADE152"/>
<stop offset="0.32" stop-color="#A2DA4A"/>
<stop offset="0.42" stop-color="#91CE3B"/>
<stop offset="0.52" stop-color="#79BE27"/>
<stop offset="0.61" stop-color="#5AA90D"/>
<stop offset="0.65" stop-color="#4A9F00"/>
<stop offset="1" stop-color="#346D0A"/>
</linearGradient>
<radialGradient id="paint15_radial_86_200" cx="0" cy="0" r="1" gradientUnits="userSpaceOnUse" gradientTransform="translate(13.7903 28.5474) rotate(-17.9222) scale(48.0323 47.7608)">
<stop offset="0.54" stop-color="#00435C"/>
<stop offset="0.58" stop-color="#08475D"/>
<stop offset="0.62" stop-color="#1E5161"/>
<stop offset="0.68" stop-color="#416166"/>
<stop offset="0.75" stop-color="#72786E"/>
<stop offset="0.83" stop-color="#B09478"/>
<stop offset="0.87" stop-color="#D3A47E"/>
</radialGradient>
</defs>
</svg>
