<svg width="66" height="71" viewBox="0 0 66 71" fill="none" xmlns="http://www.w3.org/2000/svg">
<g opacity="0.85">
<path d="M1.97534 70.2523C1.68814 63.0275 14.1742 41.0545 32.5682 31.3988C43.6453 25.4144 53.1721 16.9582 60.3986 6.69604C60.3986 6.41085 60.3986 6.26146 60.3986 6.26146C56.9659 11.2455 30.216 7.87753 11.945 22.4221C-5.87458 36.5458 1.53771 68.4325 1.97534 70.2523Z" fill="url(#paint0_linear_86_416)"/>
<path d="M32.5681 31.399C14.1741 41.0682 1.68804 63.0277 1.97523 70.2525V70.334C7.18573 58.5462 34.5374 54.7029 46.5448 45.8893C62.1353 34.441 60.6719 10.2271 60.3711 6.69622C53.1524 16.9552 43.6352 25.4112 32.5681 31.399Z" fill="url(#paint1_linear_86_416)"/>
<path d="M52.6171 16.5554L38.49 14.5319C38.4545 14.5239 38.4224 14.5053 38.398 14.4786C38.3735 14.4519 38.3579 14.4183 38.3532 14.3825C38.3532 14.3537 38.3647 14.3261 38.3852 14.3057C38.4058 14.2853 38.4336 14.2739 38.4626 14.2739L52.5077 15.3467C52.6813 15.3605 52.8449 15.4325 52.9717 15.551C53.0985 15.6695 53.1809 15.8274 53.2052 15.9986C53.2193 16.0736 53.2151 16.1509 53.1929 16.2239C53.1706 16.2969 53.131 16.3635 53.0773 16.4181C53.0237 16.4727 52.9576 16.5137 52.8846 16.5376C52.8117 16.5615 52.734 16.5676 52.6582 16.5554H52.6171Z" fill="url(#paint2_linear_86_416)"/>
<path d="M45.3962 22.7482L28.9852 20.5618C28.9506 20.5522 28.9194 20.533 28.8952 20.5066C28.871 20.4802 28.8548 20.4476 28.8485 20.4124C28.8518 20.3824 28.8663 20.3547 28.889 20.3346C28.9117 20.3146 28.9411 20.3036 28.9715 20.3038L45.3826 21.5532C45.5553 21.5693 45.7177 21.6421 45.844 21.7602C45.9704 21.8782 46.0534 22.0348 46.08 22.205C46.0888 22.2802 46.0803 22.3565 46.0552 22.428C46.0301 22.4995 45.9891 22.5644 45.9352 22.618C45.8813 22.6715 45.8158 22.7123 45.7438 22.7372C45.6718 22.7621 45.5951 22.7705 45.5193 22.7618L45.3962 22.7482Z" fill="url(#paint3_linear_86_416)"/>
<path d="M36.5069 29.5112L20.6019 26.1297C20.5655 26.1237 20.5322 26.1057 20.5074 26.0786C20.4826 26.0515 20.4677 26.0169 20.4651 25.9803C20.4645 25.9652 20.4675 25.9501 20.4739 25.9364C20.4803 25.9226 20.49 25.9106 20.502 25.9013C20.514 25.892 20.5282 25.8857 20.5431 25.8829C20.5581 25.8801 20.5736 25.8809 20.5882 25.8853L36.4248 28.2483C36.5953 28.2769 36.7517 28.36 36.8702 28.4851C36.9887 28.6101 37.0628 28.7701 37.0813 28.9409C37.0852 29.0182 37.0712 29.0954 37.0401 29.1664C37.0091 29.2375 36.9619 29.3004 36.9024 29.3504C36.8428 29.4003 36.7724 29.4359 36.6967 29.4544C36.621 29.4729 36.542 29.4738 36.4659 29.4569L36.5069 29.5112Z" fill="url(#paint4_linear_86_416)"/>
<path d="M28.0141 34.5631L10.3859 35.9211C10.351 35.9193 10.3176 35.9065 10.2905 35.8845C10.2635 35.8625 10.2442 35.8326 10.2355 35.7989C10.2287 35.7848 10.2256 35.7692 10.2263 35.7535C10.2271 35.7378 10.2317 35.7226 10.2399 35.7092C10.248 35.6957 10.2593 35.6845 10.2729 35.6765C10.2864 35.6684 10.3018 35.6638 10.3176 35.6631L27.6448 33.3273C27.8189 33.3171 27.9916 33.3633 28.1371 33.4587C28.2825 33.5542 28.3929 33.6939 28.4517 33.8569C28.4821 33.927 28.4955 34.0032 28.4909 34.0793C28.4864 34.1555 28.4639 34.2295 28.4254 34.2955C28.3868 34.3615 28.3333 34.4176 28.269 34.4593C28.2047 34.5011 28.1315 34.5273 28.0551 34.5359L28.0141 34.5631Z" fill="url(#paint5_linear_86_416)"/>
<path d="M20.8617 40.104L6.5978 43.6213C6.56389 43.6243 6.52987 43.6168 6.50047 43.5997C6.47107 43.5827 6.44774 43.557 6.43369 43.5262C6.41446 43.5061 6.40373 43.4793 6.40373 43.4515C6.40373 43.4238 6.41446 43.397 6.43369 43.3769L20.2463 38.9361C20.4133 38.8953 20.5893 38.9137 20.7441 38.9881C20.8989 39.0625 21.0227 39.1882 21.0942 39.3435C21.136 39.4077 21.1629 39.4803 21.173 39.556C21.1831 39.6318 21.1761 39.7089 21.1526 39.7816C21.129 39.8544 21.0895 39.9211 21.0368 39.9768C20.9842 40.0326 20.9196 40.076 20.848 40.104H20.8617Z" fill="url(#paint6_linear_86_416)"/>
<path d="M13.1212 49.0263L5.95503 51.267C5.92048 51.2768 5.88355 51.2739 5.85094 51.259C5.81833 51.244 5.7922 51.218 5.77724 51.1856C5.7606 51.1642 5.75157 51.1379 5.75157 51.1109C5.75157 51.0838 5.7606 51.0576 5.77724 51.0362L12.4784 47.8584C12.6358 47.7982 12.8098 47.7967 12.9682 47.8541C13.1266 47.9115 13.2587 48.024 13.34 48.1707C13.3899 48.2294 13.4261 48.2984 13.4458 48.3726C13.4655 48.4469 13.4682 48.5247 13.4538 48.6001C13.4394 48.6756 13.4081 48.7469 13.3624 48.8089C13.3167 48.8709 13.2576 48.922 13.1895 48.9584L13.1212 49.0263Z" fill="url(#paint7_linear_86_416)"/>
<path d="M53.6017 30.4618L51.8102 17.058C51.7996 16.9829 51.8062 16.9065 51.8295 16.8344C51.8528 16.7623 51.8922 16.6963 51.9448 16.6414C51.9974 16.5866 52.0619 16.5443 52.1333 16.5176C52.2047 16.491 52.2812 16.4807 52.3572 16.4876C52.5299 16.5037 52.6923 16.5765 52.8186 16.6946C52.945 16.8127 53.0281 16.9692 53.0547 17.1394L53.8616 30.4482C53.8617 30.4637 53.8585 30.4791 53.8521 30.4932C53.8458 30.5074 53.8365 30.52 53.8248 30.5303C53.8132 30.5406 53.7995 30.5483 53.7846 30.5529C53.7697 30.5575 53.754 30.5588 53.7385 30.5569C53.7096 30.5534 53.682 30.5429 53.6582 30.5263C53.6343 30.5097 53.6149 30.4876 53.6017 30.4618Z" fill="url(#paint8_linear_86_416)"/>
<path d="M45.2183 36.4236L43.5499 23.1284C43.5364 23.0529 43.5409 22.9753 43.5632 22.9019C43.5855 22.8285 43.6249 22.7613 43.6781 22.7058C43.7314 22.6503 43.797 22.608 43.8698 22.5823C43.9425 22.5566 44.0203 22.5483 44.0969 22.558C44.2705 22.5718 44.4341 22.6438 44.5609 22.7623C44.6877 22.8808 44.77 23.0387 44.7944 23.2099L45.4645 36.41C45.4646 36.4255 45.4614 36.4408 45.455 36.455C45.4487 36.4692 45.4394 36.4818 45.4277 36.4921C45.4161 36.5024 45.4024 36.5101 45.3875 36.5147C45.3726 36.5192 45.3569 36.5206 45.3414 36.5187C45.315 36.5132 45.2901 36.5017 45.2688 36.4853C45.2475 36.4688 45.2302 36.4477 45.2183 36.4236Z" fill="url(#paint9_linear_86_416)"/>
<path d="M38.0112 41.0682L36.2607 29.1582C36.2446 29.0836 36.2468 29.0061 36.2673 28.9325C36.2877 28.8589 36.3257 28.7913 36.378 28.7353C36.4303 28.6793 36.4954 28.6367 36.5679 28.6111C36.6403 28.5854 36.7179 28.5774 36.794 28.5878C36.9644 28.5979 37.1263 28.6653 37.253 28.7788C37.3798 28.8923 37.4639 29.0453 37.4915 29.2125L38.2574 41.0411C38.258 41.0562 38.255 41.0713 38.2486 41.085C38.2421 41.0988 38.2325 41.1108 38.2205 41.1201C38.2084 41.1294 38.1943 41.1357 38.1793 41.1385C38.1643 41.1413 38.1489 41.1405 38.1343 41.1361C38.1097 41.1357 38.0857 41.1292 38.0643 41.1174C38.0428 41.1055 38.0246 41.0887 38.0112 41.0682Z" fill="url(#paint10_linear_86_416)"/>
<path d="M30.0519 47.4374L26.6329 34.6854C26.6068 34.6145 26.5981 34.5385 26.6075 34.4636C26.6169 34.3888 26.6441 34.3172 26.6868 34.2548C26.7296 34.1924 26.7867 34.1411 26.8534 34.105C26.9201 34.0688 26.9946 34.049 27.0705 34.0471C27.2426 34.0409 27.4118 34.0925 27.5508 34.1935C27.6897 34.2945 27.7904 34.4391 27.8364 34.6039L30.298 47.3695C30.3023 47.3859 30.3027 47.403 30.2991 47.4195C30.2955 47.436 30.2881 47.4514 30.2775 47.4646C30.2669 47.4778 30.2534 47.4883 30.2379 47.4954C30.2225 47.5025 30.2056 47.5059 30.1886 47.5053C30.162 47.5059 30.1356 47.5 30.1118 47.4881C30.088 47.4763 30.0674 47.4589 30.0519 47.4374Z" fill="url(#paint11_linear_86_416)"/>
<path d="M21.2994 51.0226L19.6035 40.0768C19.5905 40.0026 19.595 39.9264 19.6165 39.8541C19.6381 39.7819 19.6762 39.7155 19.7278 39.6603C19.7795 39.6051 19.8432 39.5625 19.9142 39.5358C19.9852 39.5091 20.0614 39.499 20.1369 39.5064C20.3089 39.516 20.4727 39.5828 20.6017 39.6962C20.7308 39.8095 20.8175 39.9628 20.848 40.1311L21.5592 50.9955C21.5592 51.0634 21.5592 51.1177 21.4361 51.1041C21.4085 51.102 21.3817 51.0936 21.358 51.0794C21.3343 51.0653 21.3142 51.0458 21.2994 51.0226Z" fill="url(#paint12_linear_86_416)"/>
<path d="M14.0784 56.0065L12.1774 48.4015C12.1538 48.3285 12.1478 48.251 12.16 48.1752C12.1721 48.0995 12.2021 48.0277 12.2473 47.9655C12.2926 47.9034 12.3519 47.8527 12.4206 47.8176C12.4892 47.7824 12.5652 47.7638 12.6424 47.7632C12.8128 47.7654 12.9781 47.8221 13.1136 47.9248C13.249 48.0275 13.3476 48.1709 13.3946 48.3336C13.401 48.3604 13.401 48.3883 13.3946 48.4151L14.3109 56.0201C14.3132 56.0349 14.312 56.05 14.3073 56.0643C14.3026 56.0785 14.2946 56.0915 14.284 56.102C14.2733 56.1126 14.2603 56.1206 14.246 56.1252C14.2316 56.1299 14.2164 56.1311 14.2015 56.1287C14.1707 56.1235 14.1423 56.109 14.1203 56.0871C14.0982 56.0652 14.0836 56.037 14.0784 56.0065Z" fill="url(#paint13_linear_86_416)"/>
<path d="M65.0073 1.92953L64.8705 2.17398C64.7885 2.33694 64.6517 2.56781 64.4739 2.86658C64.1183 3.45053 63.585 4.31968 62.8602 5.37895C60.8874 8.29408 58.7266 11.0794 56.3915 13.7173C53.095 17.4602 49.4703 20.905 45.5602 24.0113C43.3375 25.7445 41.023 27.3583 38.6266 28.8459L36.753 29.9866C36.1102 30.3397 35.4811 30.72 34.8247 31.0731L30.9271 33.1645C28.425 34.5867 26.0341 36.1937 23.7746 37.9719C21.6008 39.6851 19.5449 41.5407 17.6205 43.5263C14.2073 47.061 11.1859 50.9491 8.60811 55.124C6.75159 58.0961 5.11967 61.201 3.72582 64.413C3.21981 65.5809 2.86422 66.5179 2.63173 67.129C2.39923 67.7402 2.28983 68.1204 2.28983 68.1204C2.27682 68.1501 2.25768 68.1768 2.23361 68.1987C2.20954 68.2206 2.1811 68.2372 2.15014 68.2474C2.11918 68.2577 2.08638 68.2613 2.0539 68.2582C2.02142 68.255 1.98999 68.2451 1.96162 68.2291C1.89774 68.2047 1.84472 68.1584 1.81213 68.0987C1.77953 68.0389 1.7695 67.9696 1.78383 67.9031C1.78383 67.9031 1.89326 67.5365 2.11208 66.8846C2.33089 66.2327 2.67278 65.2685 3.1651 64.0735C4.49092 60.7944 6.05878 57.617 7.85591 54.5672C10.3706 50.2912 13.3318 46.29 16.6905 42.63C18.5984 40.6171 20.6407 38.7342 22.8036 36.9941C25.0672 35.1273 27.4671 33.4296 29.9834 31.9151L33.8264 29.7558L35.6863 28.6422L37.5051 27.4878C39.825 25.9597 42.0576 24.3049 44.1926 22.531C47.9594 19.3995 51.4377 15.9409 54.5863 12.1963C56.8162 9.56076 58.8719 6.78455 60.7404 3.88511C61.4242 2.82584 61.9166 1.98385 62.2448 1.41348L62.614 0.748028L62.7371 0.53075C62.8246 0.399426 62.9383 0.287274 63.0711 0.201199C63.2039 0.115116 63.353 0.0569346 63.5093 0.0302165C63.6656 0.00350596 63.8257 0.00883128 63.9798 0.0458644C64.134 0.0828974 64.2788 0.15086 64.4055 0.245564C64.6996 0.404621 64.9247 0.665295 65.0382 0.978176C65.1516 1.29107 65.1455 1.63441 65.021 1.94311L65.0073 1.92953Z" fill="url(#paint14_linear_86_416)"/>
<path style="mix-blend-mode:screen" d="M2.00267 70.334C7.21316 58.5462 34.5649 54.7029 46.5722 45.8893C60.3849 35.7447 60.8088 15.5778 60.5079 8.66538C61.4379 7.44314 62.2311 6.31597 62.8602 5.37893C63.4893 4.44188 64.1184 3.4505 64.4739 2.86655C64.6517 2.56778 64.7885 2.33691 64.8705 2.17395L65.0073 1.9295C65.1318 1.6208 65.1379 1.27746 65.0245 0.964573C64.9111 0.651692 64.686 0.391011 64.3919 0.231945C64.2652 0.137242 64.1203 0.0692867 63.9662 0.0322536C63.812 -0.00477944 63.6519 -0.0100971 63.4956 0.0166134C63.3393 0.0433315 63.1902 0.101513 63.0574 0.187596C62.9246 0.273671 62.8109 0.385815 62.7234 0.51714L62.6003 0.734425L62.2311 1.39986C61.9029 1.97024 61.4106 2.7579 60.7268 3.87149C60.043 4.98509 59.1267 6.28881 57.9916 7.78265C50.3331 10.6889 27.8363 9.6839 11.8219 22.4223C-5.95668 36.5459 1.4693 68.4327 1.90693 70.2525L2.00267 70.334Z" fill="url(#paint15_radial_86_416)"/>
</g>
<defs>
<linearGradient id="paint0_linear_86_416" x1="-11.9478" y1="20.9807" x2="67.279" y2="-3.15201" gradientUnits="userSpaceOnUse">
<stop offset="0.08" stop-color="#B0E355"/>
<stop offset="0.21" stop-color="#ADE152"/>
<stop offset="0.32" stop-color="#A2DA4A"/>
<stop offset="0.42" stop-color="#91CE3B"/>
<stop offset="0.52" stop-color="#79BE27"/>
<stop offset="0.61" stop-color="#5AA90D"/>
<stop offset="0.65" stop-color="#4A9F00"/>
<stop offset="1" stop-color="#346D0A"/>
</linearGradient>
<linearGradient id="paint1_linear_86_416" x1="19.116" y1="59.8496" x2="28.6351" y2="-12.1901" gradientUnits="userSpaceOnUse">
<stop offset="0.08" stop-color="#B0E355"/>
<stop offset="0.21" stop-color="#ADE152"/>
<stop offset="0.32" stop-color="#A2DA4A"/>
<stop offset="0.42" stop-color="#91CE3B"/>
<stop offset="0.52" stop-color="#79BE27"/>
<stop offset="0.61" stop-color="#5AA90D"/>
<stop offset="0.65" stop-color="#4A9F00"/>
<stop offset="1" stop-color="#346D0A"/>
</linearGradient>
<linearGradient id="paint2_linear_86_416" x1="-28.0845" y1="37.4445" x2="31.5354" y2="-6.35761" gradientUnits="userSpaceOnUse">
<stop offset="0.08" stop-color="#B0E355"/>
<stop offset="0.21" stop-color="#ADE152"/>
<stop offset="0.32" stop-color="#A2DA4A"/>
<stop offset="0.42" stop-color="#91CE3B"/>
<stop offset="0.52" stop-color="#79BE27"/>
<stop offset="0.61" stop-color="#5AA90D"/>
<stop offset="0.65" stop-color="#4A9F00"/>
<stop offset="1" stop-color="#346D0A"/>
</linearGradient>
<linearGradient id="paint3_linear_86_416" x1="-28.1139" y1="37.4064" x2="31.5049" y2="-6.40925" gradientUnits="userSpaceOnUse">
<stop offset="0.08" stop-color="#B0E355"/>
<stop offset="0.21" stop-color="#ADE152"/>
<stop offset="0.32" stop-color="#A2DA4A"/>
<stop offset="0.42" stop-color="#91CE3B"/>
<stop offset="0.52" stop-color="#79BE27"/>
<stop offset="0.61" stop-color="#5AA90D"/>
<stop offset="0.65" stop-color="#4A9F00"/>
<stop offset="1" stop-color="#346D0A"/>
</linearGradient>
<linearGradient id="paint4_linear_86_416" x1="-28.1733" y1="37.3164" x2="31.4465" y2="-6.48578" gradientUnits="userSpaceOnUse">
<stop offset="0.08" stop-color="#B0E355"/>
<stop offset="0.21" stop-color="#ADE152"/>
<stop offset="0.32" stop-color="#A2DA4A"/>
<stop offset="0.42" stop-color="#91CE3B"/>
<stop offset="0.52" stop-color="#79BE27"/>
<stop offset="0.61" stop-color="#5AA90D"/>
<stop offset="0.65" stop-color="#4A9F00"/>
<stop offset="1" stop-color="#346D0A"/>
</linearGradient>
<linearGradient id="paint5_linear_86_416" x1="-27.9898" y1="37.5657" x2="31.6299" y2="-6.23647" gradientUnits="userSpaceOnUse">
<stop offset="0.08" stop-color="#B0E355"/>
<stop offset="0.21" stop-color="#ADE152"/>
<stop offset="0.32" stop-color="#A2DA4A"/>
<stop offset="0.42" stop-color="#91CE3B"/>
<stop offset="0.52" stop-color="#79BE27"/>
<stop offset="0.61" stop-color="#5AA90D"/>
<stop offset="0.65" stop-color="#4A9F00"/>
<stop offset="1" stop-color="#346D0A"/>
</linearGradient>
<linearGradient id="paint6_linear_86_416" x1="-26.7849" y1="39.2158" x2="32.8411" y2="-4.59346" gradientUnits="userSpaceOnUse">
<stop offset="0.08" stop-color="#B0E355"/>
<stop offset="0.21" stop-color="#ADE152"/>
<stop offset="0.32" stop-color="#A2DA4A"/>
<stop offset="0.42" stop-color="#91CE3B"/>
<stop offset="0.52" stop-color="#79BE27"/>
<stop offset="0.61" stop-color="#5AA90D"/>
<stop offset="0.65" stop-color="#4A9F00"/>
<stop offset="1" stop-color="#346D0A"/>
</linearGradient>
<linearGradient id="paint7_linear_86_416" x1="-24.3113" y1="42.5721" x2="35.3085" y2="-1.2303" gradientUnits="userSpaceOnUse">
<stop offset="0.08" stop-color="#B0E355"/>
<stop offset="0.21" stop-color="#ADE152"/>
<stop offset="0.32" stop-color="#A2DA4A"/>
<stop offset="0.42" stop-color="#91CE3B"/>
<stop offset="0.52" stop-color="#79BE27"/>
<stop offset="0.61" stop-color="#5AA90D"/>
<stop offset="0.65" stop-color="#4A9F00"/>
<stop offset="1" stop-color="#346D0A"/>
</linearGradient>
<linearGradient id="paint8_linear_86_416" x1="-21.6382" y1="46.2167" x2="37.9807" y2="2.40112" gradientUnits="userSpaceOnUse">
<stop offset="0.08" stop-color="#B0E355"/>
<stop offset="0.21" stop-color="#ADE152"/>
<stop offset="0.32" stop-color="#A2DA4A"/>
<stop offset="0.42" stop-color="#91CE3B"/>
<stop offset="0.52" stop-color="#79BE27"/>
<stop offset="0.61" stop-color="#5AA90D"/>
<stop offset="0.65" stop-color="#4A9F00"/>
<stop offset="1" stop-color="#346D0A"/>
</linearGradient>
<linearGradient id="paint9_linear_86_416" x1="-21.6896" y1="46.1464" x2="37.9303" y2="2.34426" gradientUnits="userSpaceOnUse">
<stop offset="0.08" stop-color="#B0E355"/>
<stop offset="0.21" stop-color="#ADE152"/>
<stop offset="0.32" stop-color="#A2DA4A"/>
<stop offset="0.42" stop-color="#91CE3B"/>
<stop offset="0.52" stop-color="#79BE27"/>
<stop offset="0.61" stop-color="#5AA90D"/>
<stop offset="0.65" stop-color="#4A9F00"/>
<stop offset="1" stop-color="#346D0A"/>
</linearGradient>
<linearGradient id="paint10_linear_86_416" x1="-21.6824" y1="46.1528" x2="37.9374" y2="2.35064" gradientUnits="userSpaceOnUse">
<stop offset="0.08" stop-color="#B0E355"/>
<stop offset="0.21" stop-color="#ADE152"/>
<stop offset="0.32" stop-color="#A2DA4A"/>
<stop offset="0.42" stop-color="#91CE3B"/>
<stop offset="0.52" stop-color="#79BE27"/>
<stop offset="0.61" stop-color="#5AA90D"/>
<stop offset="0.65" stop-color="#4A9F00"/>
<stop offset="1" stop-color="#346D0A"/>
</linearGradient>
<linearGradient id="paint11_linear_86_416" x1="-21.9983" y1="45.7244" x2="37.6216" y2="1.92203" gradientUnits="userSpaceOnUse">
<stop offset="0.08" stop-color="#B0E355"/>
<stop offset="0.21" stop-color="#ADE152"/>
<stop offset="0.32" stop-color="#A2DA4A"/>
<stop offset="0.42" stop-color="#91CE3B"/>
<stop offset="0.52" stop-color="#79BE27"/>
<stop offset="0.61" stop-color="#5AA90D"/>
<stop offset="0.65" stop-color="#4A9F00"/>
<stop offset="1" stop-color="#346D0A"/>
</linearGradient>
<linearGradient id="paint12_linear_86_416" x1="-22.6088" y1="44.8865" x2="37.0114" y2="1.08326" gradientUnits="userSpaceOnUse">
<stop offset="0.08" stop-color="#B0E355"/>
<stop offset="0.21" stop-color="#ADE152"/>
<stop offset="0.32" stop-color="#A2DA4A"/>
<stop offset="0.42" stop-color="#91CE3B"/>
<stop offset="0.52" stop-color="#79BE27"/>
<stop offset="0.61" stop-color="#5AA90D"/>
<stop offset="0.65" stop-color="#4A9F00"/>
<stop offset="1" stop-color="#346D0A"/>
</linearGradient>
<linearGradient id="paint13_linear_86_416" x1="-22.0063" y1="45.7047" x2="37.6064" y2="1.89598" gradientUnits="userSpaceOnUse">
<stop offset="0.08" stop-color="#B0E355"/>
<stop offset="0.21" stop-color="#ADE152"/>
<stop offset="0.32" stop-color="#A2DA4A"/>
<stop offset="0.42" stop-color="#91CE3B"/>
<stop offset="0.52" stop-color="#79BE27"/>
<stop offset="0.61" stop-color="#5AA90D"/>
<stop offset="0.65" stop-color="#4A9F00"/>
<stop offset="1" stop-color="#346D0A"/>
</linearGradient>
<linearGradient id="paint14_linear_86_416" x1="-23.7014" y1="43.4101" x2="35.9185" y2="-0.392186" gradientUnits="userSpaceOnUse">
<stop offset="0.08" stop-color="#B0E355"/>
<stop offset="0.21" stop-color="#ADE152"/>
<stop offset="0.32" stop-color="#A2DA4A"/>
<stop offset="0.42" stop-color="#91CE3B"/>
<stop offset="0.52" stop-color="#79BE27"/>
<stop offset="0.61" stop-color="#5AA90D"/>
<stop offset="0.65" stop-color="#4A9F00"/>
<stop offset="1" stop-color="#346D0A"/>
</linearGradient>
<radialGradient id="paint15_radial_86_416" cx="0" cy="0" r="1" gradientUnits="userSpaceOnUse" gradientTransform="translate(36.3065 34.5344) rotate(171.022) scale(51.4016 51.0604)">
<stop offset="0.54" stop-color="#00435C"/>
<stop offset="0.58" stop-color="#08475D"/>
<stop offset="0.62" stop-color="#1E5161"/>
<stop offset="0.68" stop-color="#416166"/>
<stop offset="0.75" stop-color="#72786E"/>
<stop offset="0.83" stop-color="#B09478"/>
<stop offset="0.87" stop-color="#D3A47E"/>
</radialGradient>
</defs>
</svg>
