<svg xmlns="http://www.w3.org/2000/svg" width="33" height="33" viewBox="0 0 33 33" fill="none">
<path d="M16.5002 14.7344C15.5237 14.7316 14.7298 15.5209 14.7271 16.4974C14.7243 17.4738 15.5136 18.2676 16.4902 18.2703H16.4938C17.4703 18.2721 18.2634 17.482 18.2652 16.5056C18.2669 15.5292 17.4768 14.7362 16.5002 14.7344Z" fill="white"/>
<path d="M16.5074 11.7881H16.5032C13.8991 11.7832 11.7842 13.89 11.7793 16.4939C11.7744 19.0977 13.8815 21.2124 16.4856 21.2173C17.742 21.2332 18.9503 20.7345 19.8298 19.8371C21.1809 18.4915 21.5877 16.4644 20.8601 14.7018C20.1326 12.9393 18.4143 11.7891 16.5074 11.7881ZM16.4956 19.4493H16.4897C14.8588 19.4477 13.5378 18.1248 13.5387 16.4941C13.5395 14.8634 14.8618 13.5419 16.4927 13.5419C18.1235 13.5419 19.4458 14.8634 19.4467 16.4941C19.4474 18.1248 18.1264 19.4477 16.4956 19.4493Z" fill="white"/>
<path d="M5.66887 20.6223C6.43754 19.8375 7.33701 19.1926 8.32698 18.7164C9.0934 18.2891 9.9627 18.0812 10.8395 18.1153C10.2519 16.0786 10.8125 13.8833 12.3047 12.3776C10.6225 10.815 8.47776 9.84167 6.19399 9.60428C4.76978 9.42335 3.34126 9.90555 2.31821 10.9126C1.55676 11.6777 0.96324 12.5932 0.575424 13.6005C-0.225866 15.3663 -0.18867 17.3991 0.676826 19.1342C0.740452 19.2633 0.811814 19.3753 0.880726 19.4926C1.56424 23.0968 3.47631 26.3527 6.29127 28.7055C6.45191 28.846 6.67612 28.8888 6.87725 28.8171C7.07838 28.7454 7.22503 28.5706 7.26055 28.3602C7.29614 28.1496 7.21504 27.9364 7.04866 27.8027C4.91799 26.0209 3.33539 23.6725 2.48389 21.029C2.58187 21.0812 2.68256 21.128 2.78564 21.1692C3.76479 21.622 4.92353 21.4022 5.66887 20.6223Z" fill="green"/>
<path d="M32.4282 19.4074C33.2272 17.6411 33.1874 15.6086 32.3197 13.8749C32.2532 13.7399 32.1842 13.612 32.1123 13.4901C31.4279 9.89688 29.5213 6.65112 26.7159 4.30365C26.5548 4.16513 26.3315 4.12401 26.1316 4.19607C25.9317 4.26813 25.7861 4.44223 25.7505 4.65172C25.7149 4.86121 25.7948 5.07359 25.9597 5.20767C28.081 6.9836 29.657 9.32301 30.5057 11.956C30.4119 11.913 30.317 11.8718 30.2186 11.8381C29.2402 11.3855 28.0822 11.6049 27.3371 12.3838C26.5677 13.169 25.6677 13.8145 24.6772 14.2915C23.9105 14.7183 23.0415 14.927 22.1646 14.8949C22.7531 16.9334 22.1908 19.1308 20.6953 20.6361C22.3781 22.1955 24.5212 23.1674 26.8031 23.4059C28.2297 23.5855 29.6601 23.1032 30.6865 22.0965C31.4483 21.3314 32.0415 20.4154 32.4282 19.4074Z" fill="green"/>
<path d="M13.8732 0.687436C13.7498 0.747574 13.6319 0.81042 13.5195 0.876038C9.90655 1.55361 6.64286 3.46948 4.29031 6.29368C4.155 6.45509 4.11613 6.67637 4.18826 6.87419C4.2604 7.07201 4.43258 7.21639 4.64003 7.25281C4.84747 7.28929 5.05859 7.21233 5.19384 7.05093C6.97041 4.92158 9.31452 3.33967 11.9541 2.48896C11.9072 2.58654 11.8653 2.68645 11.8286 2.78836C11.3818 3.76876 11.6038 4.92448 12.382 5.66954C13.1633 6.44213 13.8082 7.34138 14.2893 8.32919C14.7148 9.09604 14.9226 9.96453 14.8905 10.8409C15.4148 10.6892 15.9577 10.6112 16.5036 10.6093H16.5089C18.0521 10.6106 19.5327 11.2197 20.6299 12.3048C22.1884 10.6225 23.162 8.48195 23.4059 6.20177C23.5875 4.77545 23.1023 3.34495 22.0904 2.32343C21.3273 1.56083 20.4131 0.966407 19.4063 0.578438C17.6415 -0.229407 15.6048 -0.18925 13.8732 0.687436Z" fill="green"/>
<path d="M13.598 32.4284C15.3646 33.2276 17.3974 33.1875 19.1312 32.3194C19.2626 32.2552 19.3787 32.1821 19.4984 32.1114C23.0995 31.4358 26.3532 29.5281 28.7011 26.7156C28.8419 26.5545 28.8845 26.3298 28.8123 26.1285C28.74 25.9272 28.5644 25.7808 28.3532 25.7461C28.1421 25.7113 27.9288 25.7937 27.7958 25.9613C26.0199 28.0893 23.674 29.6669 21.0332 30.5091C21.0839 30.415 21.1294 30.3182 21.1694 30.2191C21.6166 29.2387 21.3948 28.0827 20.6165 27.3373C19.838 26.5643 19.1957 25.6653 18.7169 24.6782C18.2905 23.9123 18.0818 23.0443 18.1134 22.1683C17.5873 22.3186 17.0428 22.3952 16.4956 22.3958H16.4838C14.9422 22.393 13.464 21.7826 12.3699 20.6968C10.8116 22.38 9.83984 24.5223 9.59978 26.8033C9.41773 28.2295 9.90024 29.6604 10.9088 30.6852C11.674 31.4471 12.59 32.0408 13.598 32.4284Z" fill="green"/>
</svg>