<svg width="168" height="53" viewBox="0 0 168 53" fill="none" xmlns="http://www.w3.org/2000/svg">
<path fill-rule="evenodd" clip-rule="evenodd" d="M59.0687 52.9199C52.777 53.1008 45.8242 53.3636 41.6243 48.8793C37.2231 44.1801 36.6095 37.1165 38.648 31.1165C40.4953 25.6794 45.878 22.5451 51.3519 20.2485C56.5161 18.0819 62.1572 17.0352 67.3837 19.0605C73.0542 21.2579 77.8878 25.4668 79.4308 31.1293C81.0264 36.9847 79.4619 43.401 75.2459 47.9128C71.2723 52.1652 65.029 52.7486 59.0687 52.9199Z" fill="#78C081" fill-opacity="0.15"/>
<path d="M63.4574 25.9808V13.3718H69.7929C71.3352 13.3718 72.4504 13.7081 73.1385 14.3805C73.8385 15.041 74.1885 16.1098 74.1885 17.5868C74.1885 19.0639 73.8385 20.1386 73.1385 20.8111C72.4504 21.4836 71.3352 21.8198 69.7929 21.8198H65.9667V25.9808H63.4574ZM65.9667 19.4421H69.6505C70.3623 19.4421 70.8784 19.298 71.1988 19.0098C71.531 18.7096 71.6971 18.2353 71.6971 17.5868C71.6971 16.9504 71.531 16.488 71.1988 16.1998C70.8784 15.8996 70.3623 15.7495 69.6505 15.7495H65.9667V19.4421Z" fill="#495E4C"/>
<path d="M78.7507 26.1429C77.5524 26.1429 76.6686 25.9148 76.0991 25.4584C75.5415 24.9901 75.2627 24.2456 75.2627 23.2248C75.2627 22.1801 75.5711 21.4356 76.1881 20.9913C76.805 20.5349 77.8016 20.3068 79.1778 20.3068H81.954C81.9066 19.6703 81.7108 19.214 81.3668 18.9378C81.0346 18.6496 80.5125 18.5055 79.8007 18.5055C78.6499 18.5055 77.9736 18.9198 77.7719 19.7484H75.4584C75.6008 18.5955 76.022 17.761 76.722 17.2446C77.4219 16.7162 78.4778 16.452 79.8897 16.452C81.432 16.452 82.5532 16.7763 83.2531 17.4247C83.9531 18.0612 84.3031 19.0939 84.3031 20.5229V25.9808H81.954V25.0982C81.2778 25.7947 80.21 26.1429 78.7507 26.1429ZM77.6118 23.1168C77.6118 23.7652 78.1872 24.0895 79.338 24.0895C80.1448 24.0895 80.7498 23.9454 81.1532 23.6571C81.5684 23.3569 81.8354 22.8946 81.954 22.2702V22.054H79.8007C78.3414 22.054 77.6118 22.4083 77.6118 23.1168Z" fill="#495E4C"/>
<path d="M85.95 22.9907H88.2635C88.4889 23.7232 89.2422 24.0895 90.5236 24.0895C91.7574 24.0895 92.3744 23.8373 92.3744 23.3329C92.3744 22.8766 91.5973 22.5404 90.0431 22.3242C88.5956 22.1561 87.5694 21.8439 86.9643 21.3875C86.3593 20.9192 86.0567 20.2227 86.0567 19.298C86.0567 18.3254 86.3771 17.6108 87.0177 17.1545C87.6584 16.6862 88.6728 16.452 90.0609 16.452C91.4964 16.452 92.5642 16.7042 93.2642 17.2086C93.976 17.7009 94.3972 18.4995 94.5277 19.6043H92.2142C92.0837 19.22 91.8464 18.9438 91.5024 18.7757C91.1702 18.5955 90.6778 18.5055 90.0253 18.5055C88.8982 18.5055 88.3346 18.7396 88.3346 19.208C88.3346 19.6403 89.0465 19.9525 90.4702 20.1446C92.0362 20.3728 93.1218 20.703 93.7269 21.1354C94.3319 21.5557 94.6345 22.2221 94.6345 23.1348C94.6345 24.1435 94.2963 24.9 93.6201 25.4044C92.9557 25.8967 91.8998 26.1429 90.4524 26.1429C89.0287 26.1429 87.955 25.8907 87.2313 25.3864C86.5076 24.882 86.0805 24.0834 85.95 22.9907Z" fill="#495E4C"/>
<path d="M100.535 26.1429C98.9098 26.1429 97.7293 25.7646 96.9937 25.0081C96.27 24.2396 95.9081 23.0027 95.9081 21.2975C95.9081 19.6043 96.2759 18.3734 97.0115 17.6048C97.7471 16.8363 98.9216 16.452 100.535 16.452C102.006 16.452 103.11 16.7582 103.845 17.3707C104.581 17.9711 105.014 18.9378 105.144 20.2707H102.831C102.7 19.7063 102.457 19.298 102.101 19.0459C101.745 18.7937 101.241 18.6676 100.589 18.6676C99.7699 18.6676 99.1708 18.8777 98.7911 19.298C98.4233 19.7063 98.2394 20.3728 98.2394 21.2975C98.2394 22.2101 98.4233 22.8766 98.7911 23.2969C99.1708 23.7172 99.7699 23.9273 100.589 23.9273C101.846 23.9273 102.594 23.393 102.831 22.3242H105.144C105.014 23.6571 104.581 24.6298 103.845 25.2423C103.11 25.8427 102.006 26.1429 100.535 26.1429Z" fill="#495E4C"/>
<path d="M109.929 26.1429C108.73 26.1429 107.847 25.9148 107.277 25.4584C106.719 24.9901 106.441 24.2456 106.441 23.2248C106.441 22.1801 106.749 21.4356 107.366 20.9913C107.983 20.5349 108.98 20.3068 110.356 20.3068H113.132C113.085 19.6703 112.889 19.214 112.545 18.9378C112.213 18.6496 111.691 18.5055 110.979 18.5055C109.828 18.5055 109.152 18.9198 108.95 19.7484H106.636C106.779 18.5955 107.2 17.761 107.9 17.2446C108.6 16.7162 109.656 16.452 111.068 16.452C112.61 16.452 113.731 16.7763 114.431 17.4247C115.131 18.0612 115.481 19.0939 115.481 20.5229V25.9808H113.132V25.0982C112.456 25.7947 111.388 26.1429 109.929 26.1429ZM108.79 23.1168C108.79 23.7652 109.365 24.0895 110.516 24.0895C111.323 24.0895 111.928 23.9454 112.331 23.6571C112.746 23.3569 113.013 22.8946 113.132 22.2702V22.054H110.979C109.519 22.054 108.79 22.4083 108.79 23.1168Z" fill="#495E4C"/>
<path d="M117.519 25.9808V12.4712H119.869V25.9808H117.519Z" fill="#495E4C"/>
<path d="M125.932 13.3718H128.583L132.854 23.3149L137.108 13.3718H139.777L134.26 25.9808H131.448L125.932 13.3718Z" fill="#495E4C"/>
<path d="M141.155 24.9901C140.407 24.2215 140.034 22.9907 140.034 21.2975C140.034 19.6043 140.407 18.3734 141.155 17.6048C141.902 16.8363 143.112 16.452 144.785 16.452C146.446 16.452 147.644 16.8363 148.38 17.6048C149.127 18.3734 149.501 19.6043 149.501 21.2975C149.501 21.4656 149.489 21.7178 149.465 22.054H142.436C142.59 23.411 143.379 24.0895 144.803 24.0895C145.871 24.0895 146.577 23.7232 146.921 22.9907H149.341C149.104 24.1555 148.599 24.9721 147.828 25.4404C147.057 25.9087 146.043 26.1429 144.785 26.1429C143.112 26.1429 141.902 25.7586 141.155 24.9901ZM144.803 18.5055C144.139 18.5055 143.611 18.6436 143.219 18.9198C142.828 19.196 142.578 19.6523 142.472 20.2888H147.134C147.027 19.6523 146.778 19.196 146.387 18.9198C146.007 18.6436 145.479 18.5055 144.803 18.5055Z" fill="#495E4C"/>
<path d="M153.497 25.9808H151.148V16.6141H153.497V17.5508C154.114 16.8183 155.111 16.452 156.487 16.452C157.792 16.452 158.741 16.7883 159.334 17.4607C159.939 18.1332 160.242 19.214 160.242 20.703V25.9808H157.893V20.703C157.893 19.9945 157.721 19.4782 157.377 19.1539C157.044 18.8297 156.516 18.6676 155.793 18.6676C154.974 18.6676 154.387 18.8777 154.031 19.298C153.675 19.7063 153.497 20.3728 153.497 21.2975V25.9808Z" fill="#495E4C"/>
<path d="M165.313 16.6141H167.84V18.8297H165.313V22.4323C165.313 22.9006 165.42 23.2429 165.633 23.459C165.847 23.6632 166.203 23.7652 166.701 23.7652H168V25.9808H166.63C165.348 25.9808 164.417 25.7226 163.836 25.2062C163.254 24.6899 162.964 23.8613 162.964 22.7205V18.8297H161.611V16.6141H162.964V14.5787H165.313V16.6141Z" fill="#495E4C"/>
<path d="M65.6325 39.6705H68.1477V41.1436H65.6325V47.9965H64.0823V41.1436H62.627V39.6705H64.0823V39.3823C64.0823 38.1868 64.3407 37.3169 64.8574 36.7725C65.3742 36.2281 66.202 35.9559 67.341 35.9559H68.2426V37.4289H67.42C66.7978 37.4289 66.3444 37.5837 66.0596 37.8933C65.7749 38.2028 65.6325 38.6992 65.6325 39.3823V39.6705Z" fill="#78C081"/>
<path d="M72.5828 47.9965H71.0325V39.6705H72.5828V40.7433C73.1206 39.9427 74.0592 39.5424 75.3985 39.5424H76.1104V41.0155H74.9556C74.1119 41.0155 73.5055 41.2396 73.1364 41.688C72.7673 42.1256 72.5828 42.8408 72.5828 43.8335V47.9965Z" fill="#78C081"/>
<path d="M79.3086 47.0998C78.6548 46.4167 78.3278 45.3279 78.3278 43.8335C78.3278 42.3391 78.6548 41.2503 79.3086 40.5672C79.973 39.884 81.0434 39.5424 82.5198 39.5424C83.9857 39.5424 85.0403 39.884 85.6836 40.5672C86.3374 41.2503 86.6643 42.3391 86.6643 43.8335C86.6643 43.8869 86.6591 43.9669 86.6485 44.0737C86.6485 44.1804 86.6485 44.2605 86.6485 44.3138H79.9097C79.9625 45.1464 80.1997 45.7602 80.6216 46.1551C81.054 46.5501 81.692 46.7476 82.5356 46.7476C83.7695 46.7476 84.5552 46.3206 84.8926 45.4667H86.5062C86.2847 46.4487 85.8312 47.1372 85.1457 47.5321C84.4708 47.9271 83.5955 48.1245 82.5198 48.1245C81.0434 48.1245 79.973 47.783 79.3086 47.0998ZM82.5356 40.9194C81.7447 40.9194 81.133 41.0955 80.7007 41.4478C80.2788 41.7894 80.0257 42.3498 79.9414 43.129H85.1141C85.0297 42.3391 84.7766 41.7734 84.3548 41.4318C83.9435 41.0902 83.3371 40.9194 82.5356 40.9194Z" fill="#78C081"/>
<path d="M89.3874 45.4667H90.9218C91.0589 45.915 91.3226 46.2405 91.7128 46.4433C92.103 46.6462 92.6566 46.7476 93.3737 46.7476C94.7763 46.7476 95.4776 46.406 95.4776 45.7228C95.4776 45.4133 95.2878 45.1678 94.9082 44.9863C94.5285 44.8048 93.9169 44.6501 93.0732 44.522C91.776 44.3512 90.8586 44.0737 90.3207 43.6894C89.7934 43.2944 89.5298 42.718 89.5298 41.9602C89.5298 41.1489 89.8092 40.5458 90.3682 40.1509C90.9271 39.7453 91.8077 39.5424 93.0099 39.5424C94.2121 39.5424 95.1191 39.7559 95.7307 40.1829C96.3424 40.5992 96.7221 41.2717 96.8697 42.2003H95.3353C95.1982 41.752 94.9451 41.4264 94.576 41.2236C94.2069 41.0208 93.6743 40.9194 92.9783 40.9194C91.6811 40.9194 91.0326 41.245 91.0326 41.8961C91.0326 42.195 91.2171 42.4352 91.5862 42.6166C91.9553 42.7874 92.5406 42.9369 93.3421 43.0649C94.7025 43.2784 95.6464 43.5666 96.1737 43.9296C96.7115 44.2925 96.9804 44.8475 96.9804 45.5947C96.9804 47.2813 95.7624 48.1245 93.3263 48.1245C92.1135 48.1245 91.1907 47.9111 90.558 47.4841C89.9252 47.0571 89.535 46.3846 89.3874 45.4667Z" fill="#78C081"/>
<path d="M100.148 35.9879H101.699V40.7913C102.268 39.9587 103.265 39.5424 104.688 39.5424C105.88 39.5424 106.75 39.836 107.298 40.4231C107.847 41.0102 108.121 41.9441 108.121 43.2251V47.9965H106.587V43.2251C106.587 42.4565 106.397 41.8961 106.017 41.5439C105.638 41.1916 105.047 41.0155 104.245 41.0155C103.349 41.0155 102.7 41.2396 102.3 41.688C101.899 42.1256 101.699 42.8408 101.699 43.8335V47.9965H100.148V35.9879Z" fill="#78C081"/>
<path d="M120.125 48.1245C119.028 48.1245 118.227 47.9271 117.721 47.5321C117.215 47.1372 116.961 46.5021 116.961 45.6268C116.961 44.7195 117.241 44.0737 117.8 43.6894C118.369 43.2944 119.282 43.097 120.536 43.097H123.336C123.336 42.3391 123.147 41.7894 122.767 41.4478C122.387 41.0955 121.781 40.9194 120.948 40.9194C120.283 40.9194 119.772 41.0315 119.413 41.2557C119.055 41.4691 118.812 41.8161 118.686 42.2964H117.151C117.299 41.3357 117.679 40.6366 118.29 40.1989C118.902 39.7613 119.809 39.5424 121.011 39.5424C122.361 39.5424 123.342 39.8253 123.953 40.391C124.576 40.9461 124.887 41.8374 124.887 43.0649V47.9965H123.336V46.9237C122.714 47.7243 121.644 48.1245 120.125 48.1245ZM118.512 45.5627C118.512 45.979 118.67 46.2832 118.986 46.4754C119.313 46.6568 119.814 46.7476 120.489 46.7476C121.385 46.7476 122.055 46.5821 122.498 46.2512C122.951 45.9203 123.231 45.3919 123.336 44.6661V44.2818H120.932C119.318 44.2818 118.512 44.7088 118.512 45.5627Z" fill="#78C081"/>
<path d="M128.461 47.9965V39.6705H130.011V47.9965H128.461ZM128.445 38.0534C128.287 37.8933 128.208 37.6264 128.208 37.2528C128.208 36.8792 128.287 36.6124 128.445 36.4522C128.603 36.2921 128.867 36.2121 129.236 36.2121C129.605 36.2121 129.869 36.2921 130.027 36.4522C130.185 36.6124 130.264 36.8792 130.264 37.2528C130.264 37.6264 130.185 37.8933 130.027 38.0534C129.869 38.2135 129.605 38.2936 129.236 38.2936C128.867 38.2936 128.603 38.2135 128.445 38.0534Z" fill="#78C081"/>
<path d="M135.17 47.9965H133.619V39.6705H135.17V40.7433C135.707 39.9427 136.646 39.5424 137.985 39.5424H138.697V41.0155H137.542C136.699 41.0155 136.092 41.2396 135.723 41.688C135.354 42.1256 135.17 42.8408 135.17 43.8335V47.9965Z" fill="#78C081"/>
<path fill-rule="evenodd" clip-rule="evenodd" d="M2.16091 20.4389C0.153104 27.69 -0.306129 35.2889 0.171794 42.7509C-0.0444731 45.1231 1.2291 47.4136 2.92185 49.0478C5.39958 51.4253 10.2803 51.1011 13.4842 50.7663C19.3181 50.2022 21.9133 44.8094 22.255 39.6143C22.5167 30.6341 22.5808 21.198 22.5621 12.202C22.558 11.9459 22.5586 11.677 22.5591 11.4005C22.5615 10.2151 22.5642 8.89141 22.207 7.83981C21.3392 4.90354 18.6399 3.84922 15.9272 4.41328C15.3791 4.58941 14.8511 4.82175 14.352 5.1065C12.7229 6.00075 11.2005 7.07229 9.81302 8.30107C7.03923 10.7181 4.83324 13.7036 3.34905 17.0493C3.20244 17.3522 3.05365 17.7658 2.9159 18.1487C2.8379 18.3656 2.76344 18.5726 2.69491 18.7441C2.55304 19.0991 2.40819 19.5959 2.2816 20.03C2.23904 20.176 2.19854 20.3149 2.16091 20.4389ZM0.171794 42.7509C1.01817 35.1572 2.20897 27.5951 4.91898 20.4468C6.38926 16.6812 8.83666 13.3634 12.0157 10.8262C12.3071 10.578 12.7393 10.2568 13.0916 9.99488C13.1622 9.94239 13.2296 9.89229 13.292 9.84565C13.292 9.84565 15.476 7.95842 16.6588 7.85563C17.8416 7.75283 18.4904 7.83718 18.7574 9.13398L18.8402 9.7534L18.8588 10.4387C18.8402 13.5463 18.8268 19.2897 18.8588 22.4526C18.8989 27.0152 18.9523 31.5777 19.0591 36.1377L19.1312 39.464C19.1192 40.5005 18.9993 41.533 18.7734 42.5453C18.2608 44.9412 16.9578 47.2739 14.5949 48.2175C13.073 48.7684 11.4203 48.9845 9.81836 49.1743C7.94138 49.3377 5.97629 49.4352 4.24348 48.6656C2.1262 47.4162 0.41743 45.2522 0.171794 42.7509Z" fill="#78C081"/>
<path d="M47.6966 22.4405C48.7224 25.0125 50.591 29.0332 51.2367 33.8637C50.7739 25.0367 50.1714 25.0125 49.8732 23.6591C49.3959 21.4926 48.7574 19.364 47.9628 17.2906C45.6855 11.9451 41.6044 7.54541 36.4145 4.84103C35.9728 4.59707 35.4931 4.42766 34.995 4.33978C34.7095 4.32395 34.5441 4.27646 34.1465 4.27646C31.4382 4.12345 29.389 5.87783 28.9221 8.45269C28.6766 9.56864 28.7433 10.9379 28.7433 12.038C28.7113 18.0082 28.6979 25.4162 28.7966 31.4206C28.8367 33.5787 28.8634 35.7367 28.9221 37.8947C28.9128 39.0599 29.002 40.2239 29.1889 41.3745C30.0828 46.6007 33.0659 50.6397 38.7653 50.8719C41.599 51.075 44.6221 51.1937 47.2583 49.9221C49.3262 48.7904 50.1682 46.8782 50.7739 44.7677C51.1699 43.3878 51.7064 41.9757 53.96 39.72C51.7064 41.0735 50.9604 41.7544 49.4528 45.5849C47.433 48.9934 45.9829 49.4103 42.21 49.1755C41.1584 49.0951 40.1125 48.9541 39.0775 48.7534C38.1382 48.5661 37.111 48.3867 36.2705 47.9356C33.6796 46.6244 32.6096 43.6802 32.3081 40.9471C32.2042 39.9568 32.1801 38.96 32.236 37.9659C32.3268 34.2092 32.4335 28.8194 32.4335 25.0125C32.4335 21.2056 32.4895 15.7683 32.4335 12.0169C32.4442 10.9062 32.2067 9.20721 32.7804 8.26802C33.1859 7.59265 33.8486 7.38261 34.9443 7.90131C39.5768 10.1358 43.3619 13.781 45.7428 18.301C46.4364 19.7166 47.2528 21.3278 47.6966 22.4405Z" fill="#78C081"/>
<path d="M25.8689 10.6234C26.0571 10.2378 25.9009 9.77076 25.52 9.58016C25.1391 9.38956 24.6777 9.54762 24.4895 9.93319L20.855 17.3776C20.6667 17.7632 20.8229 18.2303 21.2038 18.4209C21.5847 18.6115 22.0461 18.4534 22.2343 18.0679L25.8689 10.6234Z" fill="#78C081"/>
<path d="M24.9575 10.6234C24.7692 10.2378 24.9254 9.77076 25.3063 9.58016C25.6872 9.38956 26.1486 9.54762 26.3369 9.93319L29.9714 17.3776C30.1596 17.7632 30.0035 18.2303 29.6225 18.4209C29.2416 18.6115 28.7803 18.4534 28.592 18.0679L24.9575 10.6234Z" fill="#78C081"/>
<path d="M24.6166 0.778697C24.6166 0.348634 24.9611 0 25.386 0C25.8109 0 26.1553 0.348635 26.1553 0.778698V10.6445C26.1553 11.0746 25.8109 11.4232 25.386 11.4232C24.9611 11.4232 24.6166 11.0746 24.6166 10.6445V0.778697Z" fill="#78C081"/>
<path d="M48.3895 47.8816C48.1544 47.4178 47.9167 46.9899 47.6743 46.5623C47.4318 46.1348 47.185 45.7132 46.9261 45.2905C46.6672 44.8677 46.3951 44.4647 46.1303 44.0631C46.0615 43.9582 45.9836 43.8632 45.9102 43.7623C45.8368 43.6615 45.7566 43.5667 45.6762 43.4681C45.5957 43.3696 45.5085 43.2772 45.4182 43.1755C45.3754 43.1264 45.3284 43.0796 45.2777 43.0355C45.2292 42.9877 45.1783 42.9401 45.1319 42.8884C45.4444 42.9529 45.7377 43.0618 45.9977 43.2098C46.1293 43.2817 46.2543 43.3606 46.3719 43.446C46.4918 43.5295 46.6054 43.6185 46.712 43.7126C47.1343 44.0834 47.4871 44.5006 47.76 44.952C48.0355 45.3992 48.239 45.8731 48.3661 46.3632C48.5072 46.8592 48.5152 47.3763 48.3895 47.8816Z" fill="#78C081"/>
<path d="M48.1646 42.8688C47.9485 42.3433 47.5946 41.881 47.136 41.5255C46.6954 41.1791 46.1921 40.9114 45.6498 40.7348C45.103 40.5627 44.5376 40.4468 43.9631 40.389C43.3824 40.3227 42.7863 40.2915 42.183 40.2612L42.686 39.7522C42.7831 40.495 42.8969 41.2333 42.9769 41.9785C43.0254 42.3499 43.0596 42.7256 43.1194 43.0696C43.1425 43.246 43.1793 43.4135 43.2231 43.5777C43.2687 43.7423 43.3263 43.9035 43.3956 44.0601C43.6781 44.697 44.13 45.2508 44.7074 45.6678C45.3128 46.1115 46.028 46.4015 46.7875 46.5113C45.9678 46.608 45.1412 46.4567 44.4253 46.0788C43.6777 45.6943 43.0678 45.1085 42.6706 44.3934C42.5719 44.2101 42.4872 44.0202 42.4172 43.825C42.3498 43.6345 42.2961 43.4396 42.2565 43.2418C42.1695 42.8424 42.1213 42.4733 42.0642 42.1125C41.9491 41.3649 41.8524 40.6244 41.7553 39.8815L41.6831 39.329L42.2608 39.3721C42.881 39.4158 43.4977 39.4909 44.1084 39.5972C44.7369 39.702 45.3465 39.8865 45.9211 40.1457C46.5032 40.4091 47.018 40.7878 47.4317 41.2568C47.8434 41.7082 48.099 42.2704 48.1646 42.8688Z" fill="#78C081"/>
<path d="M49.2151 42.5803C49.0157 42.2485 48.8759 41.8779 48.8049 41.4931C48.7329 41.1031 48.7092 40.7085 48.7345 40.3213C48.8007 39.5472 48.9871 38.8059 49.2853 38.1321C49.5776 37.4451 49.96 36.8212 50.4202 36.2803C50.6615 36.0024 50.9319 35.76 51.2262 35.5576C51.5178 35.3644 51.8251 35.2011 52.145 35.0694C52.4581 34.9312 52.7765 34.8282 53.0904 34.7303C53.4042 34.6324 53.713 34.5473 54.0273 34.4603C54.6497 34.2957 55.2571 34.1325 55.8306 33.9218C56.3838 33.7296 56.9038 33.4463 57.3755 33.0801C57.8725 32.7007 58.2734 32.1819 58.5456 31.566C58.7498 31.0525 58.9198 30.5099 59.1075 29.9836C59.0554 30.1372 59.2275 30.679 59.2565 30.8642C59.4136 31.8532 59.4812 32.8489 59.4582 33.8347C59.4511 34.4824 59.4052 35.1245 59.3207 35.7566L59.2826 36.0011L59.1497 36.6967C59.0876 37.0007 59.0199 37.3066 58.9372 37.6139C58.7668 38.2396 58.5107 38.8217 58.178 39.3397C58.0119 39.5937 57.8291 39.832 57.6312 40.0527C57.4291 40.2675 57.2273 40.4639 57.0195 40.6513C56.6033 41.027 56.1605 41.3636 55.6947 41.6583C54.7692 42.2458 53.7567 42.6548 52.6933 42.8706C53.6505 42.4234 54.5492 41.8444 55.3714 41.1451C55.7759 40.8024 56.1588 40.4283 56.5178 40.0251C56.8723 39.6412 57.1872 39.2114 57.4574 38.7427C57.7041 38.2767 57.8833 37.7625 57.9887 37.2184C58.0472 36.9413 58.0969 36.6561 58.1406 36.3619L58.2037 35.9178L58.2361 35.6936L58.2616 35.4864C58.3151 34.9028 58.3385 34.3128 58.3319 33.7194C58.3313 33.1164 58.6704 33.6979 58.0969 34.1661C57.5346 34.61 56.908 34.9442 56.2392 35.1567C55.5991 35.3714 54.9559 35.5098 54.3316 35.6493C53.7072 35.7887 53.0824 35.9173 52.5108 36.1053C52.2297 36.1941 51.958 36.3111 51.6984 36.4549C51.4424 36.5988 51.2042 36.7774 50.9882 36.9873C50.5326 37.4228 50.1377 37.9352 49.8147 38.51C49.4757 39.0822 49.2257 39.7239 49.0747 40.4096C48.9078 41.1076 48.9573 41.873 49.2151 42.5803Z" fill="#78C081"/>
</svg>
