<svg width="16" height="17" viewBox="0 0 16 17" fill="none" xmlns="http://www.w3.org/2000/svg">
<path d="M15.4996 13.5916C15.483 13.578 15.4603 13.5607 15.4301 13.5397C15.315 13.4594 15.135 13.3554 14.8789 13.2276L14.8648 13.2205L14.8511 13.2126C14.714 13.1329 14.5146 13.0223 14.2504 12.8787L15.4996 13.5916ZM15.4996 13.5916C15.4999 13.6 15.5 13.6096 15.5 13.6206V13.6217C15.5 13.7722 15.4712 13.9976 15.3991 14.3104L15.399 14.3107C15.3263 14.6269 15.2555 14.8514 15.1903 14.9988L15.1902 14.9988L15.1866 15.0075C15.1476 15.1003 15.0529 15.2361 14.8538 15.4091C14.658 15.5793 14.3839 15.7661 14.0211 15.9674C13.3709 16.3197 12.7481 16.4854 12.1478 16.4854C11.9656 16.4854 11.7893 16.4733 11.6188 16.4503C11.4538 16.4274 11.2593 16.3857 11.033 16.3221C10.793 16.2544 10.6262 16.2031 10.5253 16.1673L10.5252 16.1672C10.4126 16.1272 10.2062 16.0511 9.90321 15.9375C9.90305 15.9374 9.90288 15.9374 9.90272 15.9373L9.72723 16.4055M15.4996 13.5916L7.18176 15.2577C7.76508 15.6212 8.42817 15.9356 9.17054 16.2009M9.72723 16.4055C9.42429 16.2916 9.23876 16.2235 9.17054 16.2009M9.72723 16.4055C10.0303 16.5191 10.2406 16.5967 10.3579 16.6384C10.4753 16.6801 10.6554 16.7351 10.8976 16.8034L9.72723 16.4055ZM9.17054 16.2009L9.33881 15.73C9.33717 15.7295 9.33552 15.7289 9.33388 15.7283M9.17054 16.2009L9.32782 15.7263C9.32977 15.7269 9.33179 15.7276 9.33388 15.7283M9.33388 15.7283C8.62228 15.4736 7.99386 15.1746 7.44622 14.8333L7.44434 14.8322C6.51535 14.2589 5.54349 13.4692 4.52947 12.4553M9.33388 15.7283L4.52947 12.4553M4.52947 12.4553C3.51549 11.4413 2.72575 10.4693 2.15269 9.5405L2.15148 9.53857C1.81002 8.99073 1.51096 8.36246 1.2565 7.65078C1.2287 7.56832 1.15711 7.3743 1.04773 7.08229L1.04766 7.08211C0.933879 6.77871 0.857732 6.57252 0.817848 6.46002L4.52947 12.4553ZM9.06857 12.911C8.93944 12.8314 8.86764 12.7878 8.85251 12.7802M9.06857 12.911L8.80535 13.3361C8.80556 13.3362 8.80576 13.3364 8.80597 13.3365M9.06857 12.911C9.19745 12.9908 9.28816 13.0437 9.34102 13.0704M9.06857 12.911L8.80627 13.3367C8.80617 13.3366 8.80607 13.3365 8.80597 13.3365M8.85251 12.7802L8.61444 13.2199L8.61459 13.2199M8.85251 12.7802C7.81463 12.2044 6.92451 11.5453 6.18197 10.8031L8.85251 12.7802ZM8.80597 13.3365C8.7418 13.2969 8.693 13.267 8.65878 13.2463L8.62098 13.2237L8.61885 13.2224L8.62797 13.227C8.62118 13.2236 8.61619 13.2208 8.61459 13.2199M8.80597 13.3365C8.93473 13.4162 9.04153 13.4792 9.11554 13.5166L9.11553 13.5167L9.12091 13.5193C9.19586 13.556 9.29122 13.5952 9.40044 13.6356L9.40147 13.636C9.529 13.683 9.67752 13.7235 9.83001 13.7235C10.0268 13.7235 10.197 13.6476 10.3262 13.5676C10.4592 13.4852 10.5872 13.3744 10.7095 13.25L10.7097 13.2498C10.9379 13.0173 11.1533 12.7654 11.3557 12.494L11.3558 12.4939C11.5281 12.2627 11.7177 12.0493 11.9244 11.8527C12.0202 11.7617 12.0918 11.7093 12.1399 11.6819C12.1517 11.6751 12.1607 11.6707 12.167 11.6679C12.1875 11.6705 12.2163 11.678 12.2549 11.6966L12.4716 11.246M8.61459 13.2199L8.61839 13.2222M8.61459 13.2199L8.61839 13.2222M8.61839 13.2222L8.60992 13.2175C7.53656 12.6219 6.60788 11.9357 5.8285 11.1567L5.82834 11.1566C5.04926 10.3772 4.36295 9.4486 3.76745 8.37509L3.76214 8.36551L3.76379 8.36832L3.76442 8.36942L3.7633 8.36737C3.76253 8.36594 3.76023 8.36169 3.75724 8.3557L3.7621 8.36543L3.76113 8.36377L3.73864 8.32624C3.71797 8.29212 3.68808 8.24339 3.64855 8.17939M8.61839 13.2222L5.13195 5.06124C4.93554 5.26782 4.72218 5.4573 4.49111 5.62953L4.49096 5.62964C4.21991 5.83183 3.96773 6.0473 3.73506 6.27579L3.73499 6.27586C3.61065 6.39801 3.49987 6.52596 3.41743 6.659C3.33743 6.78813 3.26148 6.95841 3.26148 7.15528C3.26148 7.30766 3.3019 7.45617 3.34932 7.58439C3.38911 7.69199 3.42872 7.78976 3.46749 7.86729C3.50549 7.94346 3.56987 8.05205 3.64855 8.17939M3.64855 8.17939C3.64858 8.17942 3.6486 8.17946 3.64862 8.1795L4.07377 7.9168L3.64855 8.17939ZM9.34102 13.0704L11.5798 11.4904C11.807 11.2746 11.9962 11.1666 12.1477 11.1666C12.2538 11.1666 12.3618 11.1932 12.4716 11.246M9.34102 13.0704C9.39436 13.0965 9.47205 13.1289 9.57419 13.1668C9.67637 13.2044 9.76162 13.2235 9.83001 13.2235C9.96622 13.2235 10.1406 13.1156 10.3528 12.8996L9.34102 13.0704ZM12.4716 11.246C12.5817 11.2991 12.716 11.3806 12.8753 11.4904M12.4716 11.246L12.2543 11.6963C12.3316 11.7336 12.4422 11.7991 12.5913 11.9019M12.8753 11.4904L12.5907 11.9015C12.5909 11.9017 12.5911 11.9018 12.5913 11.9019M12.8753 11.4904C13.0344 11.6005 13.129 11.6667 13.1593 11.6894L12.8753 11.4904ZM12.5913 11.9019C12.7551 12.0152 12.8387 12.0739 12.859 12.0891L12.8798 12.1048L12.9022 12.1182C13.0958 12.2343 13.3024 12.354 13.5224 12.4774M12.5913 11.9019L13.5224 12.4774M13.5224 12.4774C13.5226 12.4774 13.5227 12.4775 13.5229 12.4776L13.7673 12.0415L13.5224 12.4774ZM5.28851 4.7309L5.28839 4.73065C5.25124 4.65355 5.18586 4.54315 5.08303 4.39423C4.97043 4.23129 4.9108 4.14644 4.89508 4.12542L4.87983 4.10503L4.86673 4.08319C4.75042 3.88929 4.63074 3.68253 4.50745 3.46318C4.38456 3.24456 4.25087 3.0017 4.10612 2.73522L4.10608 2.73515C3.9628 2.47127 3.85189 2.27155 3.77203 2.13378L3.76428 2.12041L3.75737 2.10658C3.6294 1.85056 3.52544 1.67055 3.44516 1.55542C3.42409 1.52519 3.40672 1.50247 3.39311 1.48585C3.38465 1.48554 3.37492 1.48535 3.36384 1.48535C3.21326 1.48535 2.9879 1.5142 2.6748 1.58628L2.6746 1.58633C2.35883 1.65888 2.13391 1.72995 1.98576 1.79523L1.9777 1.79877L1.97767 1.7987C1.88504 1.83759 1.7494 1.93227 1.57631 2.13144C1.40617 2.32723 1.21928 2.60144 1.01791 2.96428C0.665548 3.61422 0.5 4.23692 0.5 4.8373C0.5 5.02 0.511844 5.1961 0.53512 5.3659L5.28851 4.7309ZM5.28851 4.7309C5.30697 4.76918 5.31439 4.79776 5.31704 4.81827M5.28851 4.7309L5.31704 4.81827M0.663192 5.95183L0.663242 5.95201C0.730726 6.19205 0.782052 6.359 0.817834 6.45997L0.663192 5.95183ZM0.663192 5.95183C0.599489 5.72557 0.557767 5.53087 0.53513 5.36596L0.663192 5.95183ZM5.31704 4.81827C5.31422 4.82455 5.30979 4.83356 5.303 4.84547C5.27561 4.89351 5.22321 4.96514 5.1321 5.06108L5.31704 4.81827ZM15.5361 13.6253C15.536 13.6252 15.5349 13.6241 15.5331 13.6218C15.5353 13.6241 15.5363 13.6253 15.5361 13.6253ZM3.363 1.45235C3.36071 1.45051 3.35955 1.44942 3.35955 1.44933C3.35955 1.44925 3.3607 1.45017 3.363 1.45235Z" fill="#78C081" stroke="#577A5B"/>
</svg>
