<svg width="102" height="38" viewBox="0 0 102 38" fill="none" xmlns="http://www.w3.org/2000/svg">
<g filter="url(#filter0_d_105_1308)">
<path fill-rule="evenodd" clip-rule="evenodd" d="M37.0508 29.942C33.5305 30.041 29.6403 30.1848 27.2904 27.7311C24.8278 25.1598 24.4845 21.2947 25.6251 18.0116C26.6587 15.0366 29.6704 13.3216 32.7331 12.0649C35.6226 10.8794 38.7789 10.3067 41.7032 11.4149C44.8759 12.6172 47.5804 14.9202 48.4437 18.0186C49.3365 21.2226 48.4611 24.7335 46.1022 27.2022C43.8789 29.529 40.3857 29.8483 37.0508 29.942Z" fill="#78C081" fill-opacity="0.15"/>
<path d="M39.5067 15.2017V8.30238H43.0514C43.9144 8.30238 44.5384 8.48636 44.9234 8.85433C45.315 9.21572 45.5109 9.80053 45.5109 10.6087C45.5109 11.4169 45.315 12.005 44.9234 12.373C44.5384 12.741 43.9144 12.9249 43.0514 12.9249H40.9106V15.2017H39.5067ZM40.9106 11.6239H42.9718C43.3701 11.6239 43.6588 11.5451 43.8381 11.3874C44.0239 11.2231 44.1169 10.9636 44.1169 10.6087C44.1169 10.2605 44.0239 10.0075 43.8381 9.84981C43.6588 9.68554 43.3701 9.6034 42.9718 9.6034H40.9106V11.6239Z" fill="#495E4C"/>
<path d="M48.0635 15.2904C47.393 15.2904 46.8985 15.1656 46.5799 14.9159C46.2679 14.6596 46.1119 14.2523 46.1119 13.6937C46.1119 13.1221 46.2845 12.7147 46.6297 12.4716C46.9748 12.2219 47.5324 12.097 48.3025 12.097H49.8558C49.8292 11.7488 49.7197 11.4991 49.5272 11.348C49.3413 11.1903 49.0493 11.1114 48.651 11.1114C48.0071 11.1114 47.6287 11.3381 47.5159 11.7915H46.2214C46.3011 11.1607 46.5367 10.704 46.9284 10.4215C47.32 10.1324 47.9108 9.9878 48.7008 9.9878C49.5637 9.9878 50.191 10.1652 50.5827 10.52C50.9743 10.8683 51.1702 11.4334 51.1702 12.2153V15.2017H49.8558V14.7188C49.4774 15.0999 48.88 15.2904 48.0635 15.2904ZM47.4262 13.6346C47.4262 13.9894 47.7482 14.1668 48.3921 14.1668C48.8435 14.1668 49.182 14.088 49.4077 13.9303C49.6401 13.766 49.7894 13.513 49.8558 13.1714V13.0531H48.651C47.8345 13.0531 47.4262 13.2469 47.4262 13.6346Z" fill="#495E4C"/>
<path d="M52.0916 13.5656H53.386C53.5122 13.9664 53.9337 14.1668 54.6506 14.1668C55.341 14.1668 55.6861 14.0288 55.6861 13.7529C55.6861 13.5032 55.2513 13.3192 54.3817 13.2009C53.5719 13.1089 52.9977 12.9381 52.6592 12.6884C52.3206 12.4321 52.1513 12.051 52.1513 11.5451C52.1513 11.0128 52.3306 10.6219 52.689 10.3722C53.0475 10.1159 53.615 9.9878 54.3917 9.9878C55.1949 9.9878 55.7924 10.1258 56.184 10.4018C56.5823 10.6712 56.818 11.1081 56.891 11.7126H55.5965C55.5235 11.5024 55.3907 11.3512 55.1982 11.2592C55.0124 11.1607 54.7369 11.1114 54.3718 11.1114C53.7412 11.1114 53.4259 11.2395 53.4259 11.4958C53.4259 11.7323 53.8241 11.9032 54.6207 12.0083C55.497 12.1332 56.1044 12.3139 56.4429 12.5504C56.7814 12.7804 56.9507 13.1451 56.9507 13.6445C56.9507 14.1964 56.7615 14.6104 56.3832 14.8863C56.0114 15.1557 55.4206 15.2904 54.6108 15.2904C53.8142 15.2904 53.2134 15.1525 52.8085 14.8765C52.4036 14.6005 52.1646 14.1635 52.0916 13.5656Z" fill="#495E4C"/>
<path d="M60.2522 15.2904C59.3428 15.2904 58.6823 15.0835 58.2707 14.6695C57.8658 14.249 57.6634 13.5722 57.6634 12.6391C57.6634 11.7126 57.8691 11.0391 58.2807 10.6186C58.6923 10.1981 59.3494 9.9878 60.2522 9.9878C61.0754 9.9878 61.6927 10.1554 62.1043 10.4905C62.5158 10.819 62.7581 11.348 62.8312 12.0773H61.5367C61.4637 11.7685 61.3276 11.5451 61.1285 11.4071C60.9293 11.2691 60.6472 11.2001 60.2821 11.2001C59.8241 11.2001 59.4888 11.3151 59.2764 11.5451C59.0706 11.7685 58.9678 12.1332 58.9678 12.6391C58.9678 13.1385 59.0706 13.5032 59.2764 13.7332C59.4888 13.9631 59.8241 14.0781 60.2821 14.0781C60.9858 14.0781 61.404 13.7857 61.5367 13.2009H62.8312C62.7581 13.9303 62.5158 14.4625 62.1043 14.7976C61.6927 15.1262 61.0754 15.2904 60.2522 15.2904Z" fill="#495E4C"/>
<path d="M65.5081 15.2904C64.8376 15.2904 64.3431 15.1656 64.0245 14.9159C63.7125 14.6596 63.5565 14.2523 63.5565 13.6937C63.5565 13.1221 63.7291 12.7147 64.0743 12.4716C64.4194 12.2219 64.977 12.097 65.7471 12.097H67.3004C67.2738 11.7488 67.1643 11.4991 66.9718 11.348C66.7859 11.1903 66.4939 11.1114 66.0956 11.1114C65.4517 11.1114 65.0733 11.3381 64.9604 11.7915H63.666C63.7457 11.1607 63.9813 10.704 64.373 10.4215C64.7646 10.1324 65.3554 9.9878 66.1454 9.9878C67.0083 9.9878 67.6356 10.1652 68.0273 10.52C68.4189 10.8683 68.6148 11.4334 68.6148 12.2153V15.2017H67.3004V14.7188C66.922 15.0999 66.3246 15.2904 65.5081 15.2904ZM64.8708 13.6346C64.8708 13.9894 65.1928 14.1668 65.8367 14.1668C66.2881 14.1668 66.6266 14.088 66.8523 13.9303C67.0847 13.766 67.234 13.513 67.3004 13.1714V13.0531H66.0956C65.2791 13.0531 64.8708 13.2469 64.8708 13.6346Z" fill="#495E4C"/>
<path d="M69.7552 15.2017V7.80957H71.0696V15.2017H69.7552Z" fill="#495E4C"/>
<path d="M74.462 8.30238H75.9456L78.3353 13.743L80.7151 8.30238H82.2087L79.122 15.2017H77.5487L74.462 8.30238Z" fill="#495E4C"/>
<path d="M82.9795 14.6596C82.5613 14.2391 82.3522 13.5656 82.3522 12.6391C82.3522 11.7126 82.5613 11.0391 82.9795 10.6186C83.3977 10.1981 84.0748 9.9878 85.0108 9.9878C85.9401 9.9878 86.6106 10.1981 87.0222 10.6186C87.4404 11.0391 87.6495 11.7126 87.6495 12.6391C87.6495 12.7311 87.6428 12.8691 87.6296 13.0531H83.6964C83.7827 13.7956 84.2242 14.1668 85.0208 14.1668C85.6182 14.1668 86.0132 13.9664 86.2057 13.5656H87.5599C87.4271 14.203 87.145 14.6498 86.7135 14.906C86.282 15.1623 85.7145 15.2904 85.0108 15.2904C84.0748 15.2904 83.3977 15.0802 82.9795 14.6596ZM85.0208 11.1114C84.649 11.1114 84.3536 11.187 84.1346 11.3381C83.9155 11.4892 83.7761 11.7389 83.7164 12.0872H86.3252C86.2654 11.7389 86.126 11.4892 85.907 11.3381C85.6945 11.187 85.3991 11.1114 85.0208 11.1114Z" fill="#495E4C"/>
<path d="M89.8853 15.2017H88.5709V10.0765H89.8853V10.589C90.2304 10.1882 90.788 9.9878 91.5581 9.9878C92.2883 9.9878 92.8193 10.1718 93.1512 10.5397C93.4898 10.9077 93.659 11.4991 93.659 12.3139V15.2017H92.3447V12.3139C92.3447 11.9262 92.2484 11.6436 92.0559 11.4662C91.8701 11.2888 91.5747 11.2001 91.1697 11.2001C90.7117 11.2001 90.3831 11.3151 90.184 11.5451C89.9848 11.7685 89.8853 12.1332 89.8853 12.6391V15.2017Z" fill="#495E4C"/>
<path d="M96.4964 10.0765H97.9103V11.2888H96.4964V13.2601C96.4964 13.5163 96.5561 13.7036 96.6756 13.8219C96.7951 13.9336 96.9943 13.9894 97.2731 13.9894H97.9999V15.2017H97.2332C96.5163 15.2017 95.9952 15.0605 95.6699 14.7779C95.3447 14.4954 95.182 14.042 95.182 13.4178V11.2888H94.4253V10.0765H95.182V8.96275H96.4964V10.0765Z" fill="#495E4C"/>
<path d="M40.7237 22.6925H42.1309V23.4985H40.7237V27.2482H39.8563V23.4985H39.042V22.6925H39.8563V22.5348C39.8563 21.8806 40.0008 21.4046 40.29 21.1067C40.5791 20.8088 41.0423 20.6599 41.6796 20.6599H42.1841V21.4659H41.7238C41.3757 21.4659 41.1219 21.5506 40.9626 21.72C40.8033 21.8894 40.7237 22.161 40.7237 22.5348V22.6925Z" fill="#78C081"/>
<path d="M44.6124 27.2482H43.7451V22.6925H44.6124V23.2795C44.9134 22.8414 45.4385 22.6224 46.1879 22.6224H46.5862V23.4284H45.9401C45.468 23.4284 45.1287 23.551 44.9222 23.7964C44.7157 24.0358 44.6124 24.4272 44.6124 24.9703V27.2482Z" fill="#78C081"/>
<path d="M48.3756 26.7576C48.0098 26.3838 47.8269 25.788 47.8269 24.9703C47.8269 24.1526 48.0098 23.5569 48.3756 23.1831C48.7474 22.8093 49.3463 22.6224 50.1724 22.6224C50.9926 22.6224 51.5826 22.8093 51.9425 23.1831C52.3084 23.5569 52.4913 24.1526 52.4913 24.9703C52.4913 24.9995 52.4884 25.0434 52.4825 25.1018C52.4825 25.1602 52.4825 25.204 52.4825 25.2332H48.712C48.7415 25.6888 48.8742 26.0246 49.1103 26.2407C49.3522 26.4568 49.7092 26.5649 50.1812 26.5649C50.8716 26.5649 51.3112 26.3312 51.5 25.864H52.4028C52.2789 26.4013 52.0252 26.778 51.6416 26.9942C51.264 27.2103 50.7742 27.3183 50.1724 27.3183C49.3463 27.3183 48.7474 27.1314 48.3756 26.7576ZM50.1812 23.3758C49.7387 23.3758 49.3964 23.4722 49.1545 23.6649C48.9185 23.8518 48.7769 24.1585 48.7297 24.5849H51.6239C51.5767 24.1526 51.4351 23.8431 51.1991 23.6562C50.969 23.4693 50.6297 23.3758 50.1812 23.3758Z" fill="#78C081"/>
<path d="M54.0149 25.864H54.8734C54.9501 26.1093 55.0977 26.2874 55.316 26.3984C55.5343 26.5094 55.8441 26.5649 56.2453 26.5649C57.0301 26.5649 57.4225 26.378 57.4225 26.0042C57.4225 25.8348 57.3163 25.7004 57.1039 25.6011C56.8914 25.5019 56.5492 25.4172 56.0772 25.3471C55.3514 25.2536 54.838 25.1018 54.5371 24.8915C54.2421 24.6754 54.0946 24.36 54.0946 23.9453C54.0946 23.5014 54.2509 23.1714 54.5637 22.9553C54.8764 22.7333 55.3691 22.6224 56.0417 22.6224C56.7144 22.6224 57.2219 22.7392 57.5641 22.9728C57.9063 23.2006 58.1188 23.5686 58.2014 24.0767H57.3428C57.2661 23.8314 57.1245 23.6533 56.918 23.5423C56.7115 23.4313 56.4135 23.3758 56.024 23.3758C55.2983 23.3758 54.9354 23.554 54.9354 23.9103C54.9354 24.0738 55.0386 24.2052 55.2452 24.3045C55.4517 24.398 55.7792 24.4797 56.2276 24.5498C56.9888 24.6666 57.5169 24.8243 57.8119 25.0229C58.1128 25.2215 58.2633 25.5252 58.2633 25.9341C58.2633 26.8569 57.5818 27.3183 56.2188 27.3183C55.5402 27.3183 55.0239 27.2015 54.6699 26.9679C54.3158 26.7342 54.0975 26.3663 54.0149 25.864Z" fill="#78C081"/>
<path d="M60.0358 20.6774H60.9032V23.3057C61.2219 22.8502 61.7795 22.6224 62.576 22.6224C63.2428 22.6224 63.7296 22.783 64.0364 23.1042C64.3433 23.4255 64.4967 23.9365 64.4967 24.6374V27.2482H63.6381V24.6374C63.6381 24.2169 63.5319 23.9103 63.3195 23.7175C63.1071 23.5248 62.7767 23.4284 62.3282 23.4284C61.8267 23.4284 61.4638 23.551 61.2396 23.7964C61.0153 24.0358 60.9032 24.4272 60.9032 24.9703V27.2482H60.0358V20.6774Z" fill="#78C081"/>
<path d="M71.2132 27.3183C70.5995 27.3183 70.1511 27.2103 69.8678 26.9942C69.5846 26.778 69.443 26.4305 69.443 25.9516C69.443 25.4551 69.5994 25.1018 69.9121 24.8915C70.2307 24.6754 70.7411 24.5673 71.4433 24.5673H73.0099C73.0099 24.1526 72.9037 23.8518 72.6913 23.6649C72.4788 23.4722 72.1396 23.3758 71.6734 23.3758C71.3017 23.3758 71.0155 23.4372 70.8149 23.5598C70.6143 23.6766 70.4785 23.8664 70.4077 24.1293H69.5492C69.6318 23.6036 69.8442 23.221 70.1865 22.9816C70.5287 22.7421 71.0362 22.6224 71.7088 22.6224C72.4641 22.6224 73.0129 22.7772 73.3551 23.0867C73.7032 23.3904 73.8773 23.8781 73.8773 24.5498V27.2482H73.0099V26.6612C72.6618 27.0993 72.0629 27.3183 71.2132 27.3183ZM70.3104 25.9165C70.3104 26.1443 70.3989 26.3108 70.5759 26.4159C70.7588 26.5152 71.0391 26.5649 71.4167 26.5649C71.9183 26.5649 72.293 26.4743 72.5408 26.2933C72.7945 26.1122 72.9509 25.8231 73.0099 25.4259V25.2157H71.6646C70.7618 25.2157 70.3104 25.4493 70.3104 25.9165Z" fill="#78C081"/>
<path d="M75.8772 27.2482V22.6925H76.7446V27.2482H75.8772ZM75.8683 21.8076C75.7798 21.72 75.7355 21.574 75.7355 21.3695C75.7355 21.1651 75.7798 21.0191 75.8683 20.9315C75.9568 20.8439 76.1043 20.8001 76.3109 20.8001C76.5174 20.8001 76.6649 20.8439 76.7534 20.9315C76.8419 21.0191 76.8862 21.1651 76.8862 21.3695C76.8862 21.574 76.8419 21.72 76.7534 21.8076C76.6649 21.8952 76.5174 21.939 76.3109 21.939C76.1043 21.939 75.9568 21.8952 75.8683 21.8076Z" fill="#78C081"/>
<path d="M79.6308 27.2482H78.7634V22.6925H79.6308V23.2795C79.9317 22.8414 80.4568 22.6224 81.2062 22.6224H81.6045V23.4284H80.9584C80.4863 23.4284 80.1471 23.551 79.9405 23.7964C79.734 24.0358 79.6308 24.4272 79.6308 24.9703V27.2482Z" fill="#78C081"/>
<path fill-rule="evenodd" clip-rule="evenodd" d="M5.21016 12.1691C4.08676 16.1367 3.82981 20.2947 4.09721 24.3777C3.97621 25.6757 4.68879 26.929 5.63592 27.8232C7.02224 29.1241 9.75306 28.9467 11.5457 28.7636C14.8099 28.4549 16.2619 25.5041 16.4531 22.6614C16.5995 17.7477 16.6354 12.5844 16.6249 7.66205C16.6227 7.52187 16.623 7.37473 16.6233 7.22348C16.6246 6.57484 16.6261 5.85054 16.4263 5.27513C15.9407 3.66846 14.4304 3.09156 12.9126 3.4002C12.6059 3.49658 12.3105 3.62371 12.0312 3.77952C11.1198 4.26883 10.2679 4.85516 9.49163 5.52752C7.93966 6.85005 6.70537 8.48368 5.87494 10.3143C5.79291 10.4801 5.70966 10.7064 5.63258 10.916C5.58894 11.0346 5.54728 11.1479 5.50894 11.2417C5.42956 11.436 5.34851 11.7078 5.27769 11.9453C5.25387 12.0252 5.23121 12.1012 5.21016 12.1691ZM4.09721 24.3777C4.57078 20.2226 5.23705 16.0848 6.75334 12.1734C7.57598 10.1129 8.94535 8.29749 10.7241 6.90919C10.8871 6.77343 11.1289 6.59763 11.326 6.45433C11.3655 6.42561 11.4033 6.3982 11.4382 6.37268C11.4382 6.37268 12.6602 5.34003 13.322 5.28378C13.9837 5.22753 14.3468 5.27368 14.4962 5.98327L14.5425 6.3222L14.5529 6.69718C14.5425 8.39759 14.535 11.5403 14.5529 13.271C14.5753 15.7675 14.6052 18.264 14.665 20.7591L14.7053 22.5792C14.6986 23.1464 14.6315 23.7113 14.5051 24.2652C14.2183 25.5762 13.4893 26.8526 12.1672 27.3689C11.3157 27.6704 10.391 27.7886 9.49462 27.8925C8.44442 27.9819 7.34492 28.0352 6.37539 27.6141C5.19074 26.9305 4.23465 25.7464 4.09721 24.3777Z" fill="#78C081"/>
<path d="M30.6881 13.2643C31.262 14.6717 32.3076 16.8717 32.6689 19.5148C32.4099 14.6849 32.0728 14.6717 31.906 13.9311C31.6389 12.7457 31.2816 11.5809 30.837 10.4464C29.5629 7.52143 27.2794 5.11404 24.3756 3.63426C24.1285 3.50077 23.86 3.40807 23.5814 3.35998C23.4216 3.35132 23.3291 3.32534 23.1066 3.32534C21.5913 3.24161 20.4447 4.20158 20.1834 5.61048C20.0461 6.2211 20.0834 6.97031 20.0834 7.57227C20.0655 10.839 20.058 14.8925 20.1133 18.178C20.1357 19.3589 20.1506 20.5397 20.1834 21.7205C20.1783 22.3581 20.2282 22.995 20.3327 23.6246C20.8329 26.4842 22.502 28.6943 25.6909 28.8213C27.2764 28.9325 28.9679 28.9975 30.4429 28.3017C31.5999 27.6824 32.071 26.6361 32.4099 25.4813C32.6315 24.7262 32.9317 23.9536 34.1926 22.7193C32.9317 23.4599 32.5143 23.8325 31.6707 25.9284C30.5406 27.7935 29.7293 28.0216 27.6183 27.8931C27.0299 27.8491 26.4447 27.772 25.8656 27.6622C25.34 27.5597 24.7653 27.4615 24.295 27.2147C22.8454 26.4972 22.2467 24.8862 22.078 23.3907C22.0198 22.8489 22.0064 22.3034 22.0377 21.7595C22.0884 19.7039 22.1482 16.7547 22.1482 14.6717C22.1482 12.5886 22.1795 9.61345 22.1482 7.56072C22.1541 6.95298 22.0213 6.02334 22.3422 5.50943C22.5692 5.13988 22.9399 5.02495 23.553 5.30878C26.145 6.53142 28.2628 8.52603 29.5949 10.9993C29.983 11.7739 30.4398 12.6555 30.6881 13.2643Z" fill="#78C081"/>
<path d="M18.4751 6.79825C18.5805 6.58728 18.4931 6.3317 18.28 6.22741C18.0668 6.12312 17.8087 6.2096 17.7034 6.42058L15.6698 10.494C15.5645 10.705 15.6518 10.9606 15.865 11.0649C16.0781 11.1692 16.3362 11.0827 16.4416 10.8717L18.4751 6.79825Z" fill="#78C081"/>
<path d="M17.9652 6.79825C17.8599 6.58728 17.9473 6.3317 18.1604 6.22741C18.3735 6.12312 18.6317 6.2096 18.737 6.42058L20.7706 10.494C20.8759 10.705 20.7885 10.9606 20.5754 11.0649C20.3623 11.1692 20.1041 11.0827 19.9988 10.8717L17.9652 6.79825Z" fill="#78C081"/>
<path d="M17.7745 1.41144C17.7745 1.17612 17.9672 0.985352 18.205 0.985352C18.4427 0.985352 18.6354 1.17612 18.6354 1.41144V6.8098C18.6354 7.04512 18.4427 7.23589 18.205 7.23589C17.9672 7.23589 17.7745 7.04512 17.7745 6.8098V1.41144Z" fill="#78C081"/>
<path d="M31.0758 27.1851C30.9443 26.9313 30.8113 26.6972 30.6756 26.4633C30.54 26.2293 30.4018 25.9986 30.257 25.7673C30.1121 25.536 29.9599 25.3155 29.8118 25.0957C29.7732 25.0383 29.7297 24.9864 29.6886 24.9312C29.6475 24.876 29.6027 24.8241 29.5576 24.7702C29.5126 24.7163 29.4638 24.6657 29.4133 24.61C29.3894 24.5832 29.3631 24.5576 29.3347 24.5335C29.3075 24.5073 29.2791 24.4813 29.2531 24.453C29.428 24.4883 29.5921 24.5478 29.7376 24.6288C29.8112 24.6681 29.8811 24.7113 29.9469 24.7581C30.014 24.8038 30.0776 24.8525 30.1372 24.904C30.3735 25.1069 30.5709 25.3351 30.7236 25.5821C30.8777 25.8268 30.9916 26.0861 31.0627 26.3543C31.1416 26.6257 31.1461 26.9086 31.0758 27.1851Z" fill="#78C081"/>
<path d="M30.95 24.4423C30.8291 24.1547 30.631 23.9017 30.3744 23.7072C30.1279 23.5177 29.8463 23.3712 29.5429 23.2746C29.237 23.1804 28.9206 23.117 28.5991 23.0853C28.2742 23.049 27.9407 23.032 27.6031 23.0154L27.8846 22.7369C27.9389 23.1434 28.0026 23.5473 28.0473 23.9551C28.0745 24.1583 28.0936 24.3639 28.1271 24.5521C28.14 24.6486 28.1606 24.7403 28.1851 24.8301C28.2106 24.9202 28.2428 25.0084 28.2816 25.0941C28.4397 25.4426 28.6925 25.7456 29.0156 25.9738C29.3543 26.2166 29.7545 26.3753 30.1794 26.4354C29.7208 26.4883 29.2583 26.4054 28.8578 26.1987C28.4395 25.9883 28.0982 25.6678 27.876 25.2765C27.8207 25.1762 27.7734 25.0722 27.7342 24.9654C27.6965 24.8612 27.6665 24.7546 27.6443 24.6463C27.5956 24.4278 27.5686 24.2258 27.5367 24.0284C27.4723 23.6194 27.4182 23.2141 27.3639 22.8076L27.3235 22.5053L27.6467 22.5289C27.9937 22.5528 28.3388 22.5939 28.6804 22.6521C29.0321 22.7094 29.3732 22.8104 29.6947 22.9522C30.0204 23.0963 30.3084 23.3035 30.5399 23.5602C30.7703 23.8072 30.9133 24.1148 30.95 24.4423Z" fill="#78C081"/>
<path d="M31.5378 24.2844C31.4262 24.1028 31.3479 23.9 31.3082 23.6895C31.2679 23.4761 31.2546 23.2602 31.2688 23.0483C31.3058 22.6247 31.4102 22.2191 31.577 21.8504C31.7405 21.4745 31.9545 21.1331 32.212 20.8371C32.347 20.6851 32.4983 20.5524 32.663 20.4417C32.8261 20.336 32.9981 20.2466 33.177 20.1745C33.3523 20.099 33.5304 20.0426 33.706 19.989C33.8816 19.9355 34.0544 19.8889 34.2302 19.8413C34.5785 19.7512 34.9183 19.6619 35.2392 19.5466C35.5487 19.4414 35.8397 19.2864 36.1036 19.0861C36.3817 18.8785 36.606 18.5946 36.7583 18.2576C36.8725 17.9766 36.9677 17.6797 37.0727 17.3917C37.0435 17.4758 37.1398 17.7722 37.1561 17.8736C37.2439 18.4147 37.2818 18.9595 37.2689 19.499C37.265 19.8534 37.2393 20.2047 37.192 20.5506L37.1707 20.6844L37.0963 21.065C37.0615 21.2313 37.0237 21.3987 36.9774 21.5668C36.8821 21.9092 36.7388 22.2278 36.5526 22.5112C36.4597 22.6502 36.3574 22.7805 36.2466 22.9013C36.1336 23.0189 36.0207 23.1263 35.9044 23.2289C35.6716 23.4344 35.4238 23.6186 35.1632 23.7799C34.6454 24.1014 34.0789 24.3251 33.4838 24.4432C34.0194 24.1985 34.5222 23.8817 34.9823 23.4991C35.2086 23.3115 35.4229 23.1068 35.6237 22.8862C35.822 22.6762 35.9983 22.441 36.1494 22.1845C36.2875 21.9295 36.3877 21.6482 36.4467 21.3504C36.4794 21.1988 36.5072 21.0428 36.5317 20.8818L36.567 20.6388L36.5851 20.5161L36.5994 20.4028C36.6293 20.0834 36.6424 19.7606 36.6387 19.4359C36.6384 19.106 36.8282 19.4241 36.5072 19.6803C36.1926 19.9232 35.8421 20.1061 35.4678 20.2224C35.1097 20.3398 34.7498 20.4155 34.4005 20.4919C34.0511 20.5682 33.7016 20.6385 33.3817 20.7414C33.2245 20.79 33.0724 20.854 32.9272 20.9327C32.7839 21.0114 32.6507 21.1091 32.5298 21.224C32.2749 21.4623 32.0539 21.7427 31.8732 22.0572C31.6835 22.3703 31.5437 22.7214 31.4592 23.0966C31.3658 23.4785 31.3935 23.8973 31.5378 24.2844Z" fill="#78C081"/>
</g>
<defs>
<filter id="filter0_d_105_1308" x="0" y="0.985352" width="102" height="37.0005" filterUnits="userSpaceOnUse" color-interpolation-filters="sRGB">
<feFlood flood-opacity="0" result="BackgroundImageFix"/>
<feColorMatrix in="SourceAlpha" type="matrix" values="0 0 0 0 0 0 0 0 0 0 0 0 0 0 0 0 0 0 127 0" result="hardAlpha"/>
<feOffset dy="4"/>
<feGaussianBlur stdDeviation="2"/>
<feComposite in2="hardAlpha" operator="out"/>
<feColorMatrix type="matrix" values="0 0 0 0 0 0 0 0 0 0 0 0 0 0 0 0 0 0 0.25 0"/>
<feBlend mode="normal" in2="BackgroundImageFix" result="effect1_dropShadow_105_1308"/>
<feBlend mode="normal" in="SourceGraphic" in2="effect1_dropShadow_105_1308" result="shape"/>
</filter>
</defs>
</svg>
