<svg width="125" height="105" viewBox="0 0 125 105" fill="none" xmlns="http://www.w3.org/2000/svg">
<path fill-rule="evenodd" clip-rule="evenodd" d="M4.53166 42.0347C0.324878 56.9473 -0.637313 72.5754 0.364036 87.9216C-0.0890883 92.8003 2.57931 97.5109 6.12599 100.872C11.3173 105.761 21.5434 105.095 28.2564 104.406C40.4795 103.246 45.917 92.1552 46.6331 81.4709C47.1813 63.0023 47.3156 43.5959 47.2764 25.0948C47.268 24.5679 47.2691 24.0149 47.2703 23.4464C47.2753 21.0084 47.2809 18.2861 46.5324 16.1234C44.7143 10.0846 39.0586 7.91633 33.375 9.07637C32.2265 9.43859 31.1202 9.91642 30.0745 10.502C26.6613 12.3412 23.4714 14.5449 20.5644 17.072C14.7528 22.0428 10.1308 28.1829 7.02105 35.0636C6.71388 35.6866 6.40214 36.5372 6.11351 37.3248C5.95009 37.7707 5.79408 38.1964 5.65049 38.5491C5.35326 39.2793 5.04976 40.301 4.78453 41.1938C4.69535 41.494 4.6105 41.7796 4.53166 42.0347ZM0.364036 87.9216C2.13738 72.3043 4.63236 56.7521 10.3104 42.051C13.3909 34.3065 18.5188 27.4831 25.1796 22.2651C25.7901 21.7548 26.6956 21.0941 27.4337 20.5555C27.5816 20.4476 27.7228 20.3445 27.8536 20.2486C27.8536 20.2486 32.4296 16.3673 34.9078 16.1559C37.386 15.9445 38.7454 16.118 39.3048 18.785L39.4782 20.0589L39.5174 21.4683C39.4782 27.8594 39.4502 39.6712 39.5174 46.1762C39.6013 55.5595 39.7132 64.9429 39.9369 74.3209L40.088 81.1619C40.0628 83.2935 39.8116 85.4169 39.3383 87.4988C38.2643 92.4263 35.5343 97.2236 30.5835 99.1643C27.3949 100.297 23.9321 100.742 20.5756 101.132C16.643 101.468 12.5257 101.669 8.89509 100.086C4.45894 97.5164 0.878696 93.0659 0.364036 87.9216Z" fill="#78C081"/>
<path d="M99.9385 46.1512C102.088 51.4408 106.003 59.7098 107.356 69.6442C106.386 51.4905 105.124 51.4408 104.499 48.6574C103.499 44.2019 102.161 39.8241 100.496 35.5599C95.7249 24.5662 87.1741 15.5179 76.3002 9.95608C75.3748 9.45434 74.3696 9.10594 73.3261 8.9252C72.7279 8.89265 72.3813 8.79499 71.5483 8.79499C65.8738 8.4803 61.5803 12.0884 60.6019 17.3838C60.0876 19.6789 60.2274 22.4948 60.2274 24.7573C60.1603 37.0356 60.1323 52.271 60.3392 64.6198C60.423 69.058 60.4789 73.4962 60.6019 77.9344C60.5825 80.3308 60.7695 82.7247 61.161 85.0909C63.0338 95.8391 69.2841 104.146 81.2255 104.623C87.1627 105.041 93.4968 105.285 99.0203 102.67C103.353 100.342 105.117 96.4099 106.386 92.0694C107.216 89.2314 108.34 86.3275 113.062 81.6884C108.34 84.4718 106.777 85.8724 103.618 93.75C99.3862 100.76 96.348 101.617 88.443 101.135C86.2397 100.969 84.0482 100.679 81.8796 100.266C79.9118 99.8813 77.7594 99.5123 75.9984 98.5845C70.5699 95.888 68.3281 89.8329 67.6964 84.2119C67.4786 82.1753 67.4282 80.1252 67.5454 78.0809C67.7355 70.3547 67.9591 59.2701 67.9591 51.4408C67.9591 43.6116 68.0765 32.4292 67.9591 24.7139C67.9815 22.4297 67.4839 18.9356 68.6859 17.004C69.5357 15.6151 70.9241 15.1831 73.2198 16.2499C82.9259 20.8452 90.8564 28.3421 95.8449 37.6379C97.2981 40.5493 99.0088 43.8629 99.9385 46.1512Z" fill="#78C081"/>
<path d="M54.2049 21.8481C54.5993 21.0552 54.272 20.0946 53.474 19.7026C52.6759 19.3106 51.7092 19.6357 51.3148 20.4286L43.6997 35.7389C43.3053 36.5319 43.6325 37.4925 44.4306 37.8845C45.2286 38.2765 46.1953 37.9514 46.5898 37.1584L54.2049 21.8481Z" fill="#78C081"/>
<path d="M52.2953 21.8481C51.9009 21.0552 52.2281 20.0946 53.0262 19.7026C53.8243 19.3106 54.791 19.6357 55.1854 20.4286L62.8005 35.7389C63.1949 36.5319 62.8677 37.4925 62.0696 37.8845C61.2715 38.2765 60.3048 37.9514 59.9104 37.1584L52.2953 21.8481Z" fill="#78C081"/>
<path d="M51.5812 1.60147C51.5812 0.717002 52.3028 0 53.1931 0C54.0833 0 54.805 0.717004 54.805 1.60147V21.8916C54.805 22.776 54.0833 23.493 53.1931 23.493C52.3028 23.493 51.5812 22.776 51.5812 21.8916V1.60147Z" fill="#78C081"/>
<path d="M101.39 98.4735C100.898 97.5195 100.4 96.6396 99.8918 95.7603C99.3838 94.881 98.8666 94.0139 98.3241 93.1445C97.7817 92.2751 97.2117 91.4463 96.6569 90.6203C96.5126 90.4045 96.3496 90.2093 96.1958 90.0018C96.0419 89.7943 95.8739 89.5994 95.7053 89.3967C95.5368 89.1941 95.354 89.004 95.1649 88.7948C95.0751 88.6939 94.9768 88.5977 94.8704 88.507C94.7688 88.4088 94.6621 88.3108 94.565 88.2044C95.2197 88.3371 95.8343 88.561 96.379 88.8655C96.6547 89.0132 96.9166 89.1755 97.163 89.3512C97.4143 89.5229 97.6523 89.706 97.8756 89.8996C98.7605 90.6622 99.4995 91.5201 100.071 92.4485C100.649 93.3681 101.075 94.3428 101.341 95.3507C101.637 96.3708 101.654 97.4342 101.39 98.4735Z" fill="#78C081"/>
<path d="M100.919 88.1642C100.466 87.0834 99.7248 86.1327 98.764 85.4015C97.8409 84.6892 96.7864 84.1385 95.6501 83.7753C94.5045 83.4215 93.3198 83.1831 92.1161 83.0642C90.8993 82.9278 89.6505 82.8636 88.3864 82.8014L89.4404 81.7544C89.6437 83.2822 89.8823 84.8006 90.0497 86.3331C90.1514 87.097 90.223 87.8697 90.3484 88.577C90.3967 88.9399 90.4738 89.2844 90.5657 89.6221C90.6611 89.9606 90.7818 90.2921 90.927 90.6142C91.5189 91.924 92.4657 93.063 93.6756 93.9207C94.9439 94.833 96.4424 95.4295 98.0338 95.6554C96.3163 95.8542 94.5844 95.543 93.0846 94.7659C91.5181 93.975 90.2403 92.7704 89.408 91.2996C89.2012 90.9227 89.0238 90.5321 88.8772 90.1306C88.736 89.7388 88.6235 89.3381 88.5404 88.9313C88.3581 88.1099 88.2571 87.3508 88.1374 86.6087C87.8963 85.0713 87.6936 83.5482 87.4903 82.0204L87.3391 80.8841L88.5495 80.9728C89.8488 81.0627 91.141 81.2172 92.4204 81.4356C93.7374 81.6512 95.0147 82.0306 96.2184 82.5639C97.4381 83.1055 98.5167 83.8843 99.3835 84.8489C100.246 85.7772 100.782 86.9335 100.919 88.1642Z" fill="#78C081"/>
<path d="M103.12 87.5709C102.702 86.8884 102.409 86.1262 102.261 85.3348C102.11 84.5329 102.06 83.7212 102.113 82.9249C102.252 81.3329 102.643 79.8083 103.267 78.4226C103.88 77.0098 104.681 75.7267 105.645 74.6142C106.151 74.0427 106.717 73.5441 107.334 73.128C107.945 72.7306 108.589 72.3947 109.259 72.1238C109.915 71.8397 110.582 71.6277 111.24 71.4264C111.897 71.2251 112.544 71.05 113.203 70.8711C114.507 70.5327 115.779 70.197 116.981 69.7637C118.14 69.3683 119.23 68.7857 120.218 68.0327C121.259 67.2525 122.099 66.1855 122.67 64.9187C123.097 63.8626 123.454 62.7469 123.847 61.6644C123.738 61.9802 124.098 63.0945 124.159 63.4754C124.488 65.5094 124.63 67.5571 124.582 69.5845C124.567 70.9166 124.471 72.2372 124.294 73.5371L124.214 74.04L123.935 75.4705C123.805 76.0958 123.663 76.7249 123.49 77.3568C123.133 78.6436 122.596 79.8409 121.899 80.9061C121.551 81.4285 121.168 81.9185 120.754 82.3725C120.33 82.8144 119.907 83.2183 119.472 83.6036C118.6 84.3763 117.672 85.0685 116.696 85.6746C114.757 86.8829 112.636 87.724 110.408 88.1679C112.413 87.2482 114.296 86.0574 116.019 84.6191C116.867 83.9143 117.669 83.145 118.421 82.3157C119.164 81.5263 119.823 80.6423 120.39 79.6783C120.906 78.7199 121.282 77.6625 121.503 76.5434C121.625 75.9736 121.729 75.3871 121.821 74.7821L121.953 73.8687L122.021 73.4076L122.075 72.9815C122.187 71.7812 122.236 70.5677 122.222 69.3475C122.22 68.1074 122.931 69.3032 121.729 70.266C120.551 71.1791 119.238 71.8663 117.837 72.3035C116.496 72.7449 115.148 73.0296 113.84 73.3164C112.532 73.6032 111.223 73.8676 110.025 74.2543C109.436 74.4369 108.867 74.6775 108.323 74.9734C107.787 75.2692 107.288 75.6365 106.835 76.0682C105.881 76.9639 105.053 78.0178 104.376 79.1997C103.666 80.3766 103.142 81.6964 102.826 83.1064C102.476 84.542 102.58 86.1161 103.12 87.5709Z" fill="#78C081"/>
</svg>
