<svg width="221" height="74" viewBox="0 0 221 74" fill="none" xmlns="http://www.w3.org/2000/svg">
<path d="M1.96124 28.4314V2.49972H15.2353C18.4668 2.49972 20.8034 3.19123 22.2452 4.57425C23.7118 5.93258 24.4451 8.13059 24.4451 11.1683C24.4451 14.206 23.7118 16.4164 22.2452 17.7994C20.8034 19.1824 18.4668 19.8739 15.2353 19.8739H7.21866V28.4314H1.96124ZM7.21866 14.984H14.937C16.4285 14.984 17.5098 14.6876 18.1809 14.0949C18.877 13.4775 19.225 12.5019 19.225 11.1683C19.225 9.85937 18.877 8.90854 18.1809 8.31582C17.5098 7.6984 16.4285 7.38969 14.937 7.38969H7.21866V14.984Z" fill="#495E4C"/>
<path d="M34.0039 28.7648C31.4933 28.7648 29.6414 28.2955 28.4482 27.3571C27.2799 26.3939 26.6957 24.8627 26.6957 22.7635C26.6957 20.6148 27.342 19.0836 28.6346 18.1698C29.9272 17.2314 32.0153 16.7621 34.8988 16.7621H40.7155C40.6161 15.4532 40.2059 14.5147 39.485 13.9467C38.789 13.354 37.6953 13.0576 36.2038 13.0576C33.7926 13.0576 32.3757 13.9096 31.9531 15.6137H27.1059C27.4042 13.2428 28.2866 11.5264 29.7532 10.4644C31.2198 9.37778 33.4322 8.83445 36.3902 8.83445C39.6218 8.83445 41.9708 9.50127 43.4374 10.8349C44.904 12.1438 45.6373 14.2677 45.6373 17.2067V28.4314H40.7155V26.6161C39.2986 28.0486 37.0614 28.7648 34.0039 28.7648ZM31.6175 22.5412C31.6175 23.8748 32.8232 24.5416 35.2344 24.5416C36.9247 24.5416 38.1924 24.2453 39.0376 23.6525C39.9076 23.0351 40.4669 22.0843 40.7155 20.8001V20.3555H36.2038C33.1463 20.3555 31.6175 21.0841 31.6175 22.5412Z" fill="#495E4C"/>
<path d="M49.0878 22.2819H53.9351C54.4074 23.7884 55.9858 24.5416 58.6705 24.5416C61.2557 24.5416 62.5483 24.023 62.5483 22.9857C62.5483 22.0472 60.9201 21.3557 57.6637 20.9112C54.6311 20.5654 52.4809 19.9233 51.2132 18.9848C49.9454 18.0217 49.3115 16.5892 49.3115 14.6876C49.3115 12.6872 49.9827 11.2177 51.325 10.2792C52.6673 9.31604 54.7927 8.83445 57.701 8.83445C60.7088 8.83445 62.946 9.35308 64.4126 10.3904C65.9041 11.4029 66.7866 13.0453 67.06 15.3174H62.2127C61.9393 14.5271 61.4421 13.959 60.7213 13.6133C60.0252 13.2428 58.9936 13.0576 57.6265 13.0576C55.265 13.0576 54.0842 13.5392 54.0842 14.5024C54.0842 15.3915 55.5757 16.0336 58.5586 16.4287C61.8399 16.898 64.1143 17.5771 65.3821 18.4662C66.6498 19.3306 67.2837 20.7013 67.2837 22.5782C67.2837 24.6528 66.5753 26.2087 65.1584 27.2459C63.7663 28.2585 61.554 28.7648 58.5213 28.7648C55.5384 28.7648 53.2888 28.2461 51.7725 27.2089C50.2561 26.1716 49.3612 24.5293 49.0878 22.2819Z" fill="#495E4C"/>
<path d="M79.6469 28.7648C76.2413 28.7648 73.768 27.9868 72.2268 26.4309C70.7105 24.8503 69.9523 22.3066 69.9523 18.7996C69.9523 15.3174 70.7229 12.7859 72.2641 11.2053C73.8053 9.62475 76.2662 8.83445 79.6469 8.83445C82.7292 8.83445 85.041 9.46422 86.5822 10.7238C88.1234 11.9586 89.0307 13.9467 89.3041 16.688H84.4568C84.1834 15.5273 83.6738 14.6876 82.9281 14.169C82.1824 13.6503 81.1259 13.391 79.7587 13.391C78.0435 13.391 76.7882 13.8232 75.9928 14.6876C75.2222 15.5273 74.8369 16.898 74.8369 18.7996C74.8369 20.6766 75.2222 22.0472 75.9928 22.9116C76.7882 23.776 78.0435 24.2082 79.7587 24.2082C82.3937 24.2082 83.9597 23.1092 84.4568 20.9112H89.3041C89.0307 23.6525 88.1234 25.653 86.5822 26.9125C85.041 28.1474 82.7292 28.7648 79.6469 28.7648Z" fill="#495E4C"/>
<path d="M99.3284 28.7648C96.8178 28.7648 94.9659 28.2955 93.7727 27.3571C92.6044 26.3939 92.0202 24.8627 92.0202 22.7635C92.0202 20.6148 92.6665 19.0836 93.9591 18.1698C95.2517 17.2314 97.3398 16.7621 100.223 16.7621H106.04C105.941 15.4532 105.53 14.5147 104.81 13.9467C104.114 13.354 103.02 13.0576 101.528 13.0576C99.1171 13.0576 97.7002 13.9096 97.2776 15.6137H92.4304C92.7287 13.2428 93.6111 11.5264 95.0777 10.4644C96.5443 9.37778 98.7567 8.83445 101.715 8.83445C104.946 8.83445 107.295 9.50127 108.762 10.8349C110.229 12.1438 110.962 14.2677 110.962 17.2067V28.4314H106.04V26.6161C104.623 28.0486 102.386 28.7648 99.3284 28.7648ZM96.9421 22.5412C96.9421 23.8748 98.1477 24.5416 100.559 24.5416C102.249 24.5416 103.517 24.2453 104.362 23.6525C105.232 23.0351 105.791 22.0843 106.04 20.8001V20.3555H101.528C98.4708 20.3555 96.9421 21.0841 96.9421 22.5412Z" fill="#495E4C"/>
<path d="M115.233 28.4314V0.647461H120.154V28.4314H115.233Z" fill="#495E4C"/>
<path d="M132.858 2.49972H138.414L147.362 22.9487L156.274 2.49972H161.867L150.308 28.4314H144.417L132.858 2.49972Z" fill="#495E4C"/>
<path d="M164.753 26.3939C163.187 24.8133 162.404 22.2819 162.404 18.7996C162.404 15.3174 163.187 12.7859 164.753 11.2053C166.319 9.62475 168.855 8.83445 172.36 8.83445C175.84 8.83445 178.351 9.62475 179.892 11.2053C181.458 12.7859 182.241 15.3174 182.241 18.7996C182.241 19.1454 182.216 19.664 182.166 20.3555H167.438C167.761 23.1462 169.414 24.5416 172.397 24.5416C174.634 24.5416 176.113 23.7884 176.834 22.2819H181.905C181.408 24.6775 180.352 26.3568 178.736 27.32C177.12 28.2832 174.995 28.7648 172.36 28.7648C168.855 28.7648 166.319 27.9745 164.753 26.3939ZM172.397 13.0576C171.005 13.0576 169.899 13.3416 169.079 13.9096C168.258 14.4777 167.736 15.4162 167.513 16.7251H177.282C177.058 15.4162 176.536 14.4777 175.716 13.9096C174.92 13.3416 173.814 13.0576 172.397 13.0576Z" fill="#495E4C"/>
<path d="M190.613 28.4314H185.691V9.16786H190.613V11.0942C191.906 9.5877 193.994 8.83445 196.877 8.83445C199.612 8.83445 201.6 9.52596 202.843 10.909C204.111 12.292 204.745 14.5147 204.745 17.5771V28.4314H199.823V17.5771C199.823 16.12 199.463 15.058 198.742 14.3912C198.046 13.7244 196.939 13.391 195.423 13.391C193.708 13.391 192.478 13.8232 191.732 14.6876C190.986 15.5273 190.613 16.898 190.613 18.7996V28.4314Z" fill="#495E4C"/>
<path d="M215.37 9.16786H220.665V13.7244H215.37V21.1335C215.37 22.0966 215.594 22.8005 216.041 23.245C216.488 23.6649 217.234 23.8748 218.278 23.8748H221V28.4314H218.129C215.444 28.4314 213.493 27.9004 212.275 26.8384C211.057 25.7765 210.448 24.0724 210.448 21.7262V13.7244H207.614V9.16786H210.448V4.98175H215.37V9.16786Z" fill="#495E4C"/>
<path d="M6.5185 56.5857H11.7883V59.6152H6.5185V73.7088H3.27041V59.6152H0.221191V56.5857H3.27041V55.993C3.27041 53.5343 3.81176 51.7451 4.89446 50.6256C5.97715 49.506 7.71167 48.9462 10.098 48.9462H11.9872V51.9757H10.2637C8.96008 51.9757 8.00996 52.294 7.41338 52.9306C6.81679 53.5672 6.5185 54.588 6.5185 55.993V56.5857Z" fill="#78C081"/>
<path d="M21.0808 73.7088H17.8327V56.5857H21.0808V58.792C22.2076 57.1455 24.1742 56.3223 26.9803 56.3223H28.4718V59.3518H26.0523C24.2847 59.3518 23.0141 59.8128 22.2408 60.7348C21.4674 61.6348 21.0808 63.1057 21.0808 65.1473V73.7088Z" fill="#78C081"/>
<path d="M35.1728 71.8648C33.8029 70.4598 33.1179 68.2207 33.1179 65.1473C33.1179 62.0739 33.8029 59.8347 35.1728 58.4297C36.5648 57.0248 38.8076 56.3223 41.901 56.3223C44.9723 56.3223 47.1819 57.0248 48.5297 58.4297C49.8996 59.8347 50.5846 62.0739 50.5846 65.1473C50.5846 65.257 50.5736 65.4217 50.5515 65.6412C50.5515 65.8607 50.5515 66.0254 50.5515 66.1352H36.4323C36.5427 67.8475 37.0399 69.1097 37.9237 69.922C38.8297 70.7342 40.1664 71.1404 41.9341 71.1404C44.5193 71.1404 46.1655 70.2623 46.8725 68.506H50.2532C49.7892 70.5257 48.8391 71.9416 47.4028 72.7539C45.9887 73.5661 44.1547 73.9723 41.901 73.9723C38.8076 73.9723 36.5648 73.2698 35.1728 71.8648ZM41.9341 59.1542C40.2769 59.1542 38.9954 59.5164 38.0894 60.2408C37.2056 60.9433 36.6753 62.0959 36.4985 63.6984H47.3365C47.1598 62.0739 46.6295 60.9104 45.7456 60.2079C44.8839 59.5054 43.6134 59.1542 41.9341 59.1542Z" fill="#78C081"/>
<path d="M56.29 68.506H59.5049C59.7922 69.4281 60.3446 70.0976 61.1621 70.5147C61.9797 70.9318 63.1397 71.1404 64.6422 71.1404C67.581 71.1404 69.0503 70.4379 69.0503 69.0329C69.0503 68.3963 68.6526 67.8914 67.8572 67.5182C67.0617 67.145 65.7802 66.8267 64.0125 66.5632C61.2947 66.212 59.3724 65.6412 58.2455 64.8509C57.1407 64.0387 56.5883 62.8532 56.5883 61.2946C56.5883 59.6262 57.1738 58.3858 58.3449 57.5736C59.516 56.7394 61.361 56.3223 63.8799 56.3223C66.3988 56.3223 68.2991 56.7613 69.5806 57.6395C70.8622 58.4956 71.6576 59.8786 71.967 61.7885H68.752C68.4648 60.8665 67.9345 60.1969 67.1611 59.7798C66.3878 59.3627 65.2719 59.1542 63.8136 59.1542C61.0958 59.1542 59.7369 59.8237 59.7369 61.1629C59.7369 61.7775 60.1236 62.2715 60.897 62.6447C61.6703 62.9959 62.8966 63.3032 64.5759 63.5667C67.4263 64.0057 69.4039 64.5985 70.5087 65.3448C71.6355 66.0912 72.199 67.2328 72.199 68.7695C72.199 72.238 69.6469 73.9723 64.5428 73.9723C62.0018 73.9723 60.0684 73.5332 58.7426 72.6551C57.4169 71.777 56.5993 70.394 56.29 68.506Z" fill="#78C081"/>
<path d="M78.8365 49.012H82.0846V58.8908C83.2778 57.1784 85.3658 56.3223 88.3488 56.3223C90.8456 56.3223 92.6685 56.926 93.8175 58.1334C94.9665 59.3408 95.541 61.2616 95.541 63.896V73.7088H92.326V63.896C92.326 62.3154 91.9283 61.1629 91.1328 60.4384C90.3374 59.714 89.1 59.3518 87.4208 59.3518C85.5426 59.3518 84.1837 59.8128 83.3441 60.7348C82.5044 61.6348 82.0846 63.1057 82.0846 65.1473V73.7088H78.8365V49.012Z" fill="#78C081"/>
<path d="M120.692 73.9723C118.394 73.9723 116.715 73.5661 115.654 72.7539C114.594 71.9416 114.063 70.6355 114.063 68.8353C114.063 66.9694 114.649 65.6412 115.82 64.8509C117.013 64.0387 118.924 63.6325 121.554 63.6325H127.42C127.42 62.0739 127.023 60.9433 126.227 60.2408C125.432 59.5164 124.161 59.1542 122.416 59.1542C121.024 59.1542 119.952 59.3847 119.201 59.8457C118.449 60.2848 117.941 60.9982 117.676 61.9861H114.461C114.77 60.0103 115.566 58.5724 116.847 57.6724C118.129 56.7723 120.029 56.3223 122.548 56.3223C125.376 56.3223 127.431 56.904 128.713 58.0675C130.017 59.2091 130.668 61.0421 130.668 63.5667V73.7088H127.42V71.5026C126.117 73.149 123.874 73.9723 120.692 73.9723ZM117.311 68.7036C117.311 69.5598 117.643 70.1854 118.306 70.5806C118.991 70.9538 120.04 71.1404 121.454 71.1404C123.333 71.1404 124.736 70.8001 125.664 70.1196C126.614 69.439 127.199 68.3524 127.42 66.8596V66.0693H122.382C119.002 66.0693 117.311 66.9474 117.311 68.7036Z" fill="#78C081"/>
<path d="M138.157 73.7088V56.5857H141.405V73.7088H138.157ZM138.124 53.2599C137.793 52.9306 137.627 52.3818 137.627 51.6134C137.627 50.8451 137.793 50.2963 138.124 49.967C138.456 49.6377 139.008 49.473 139.781 49.473C140.555 49.473 141.107 49.6377 141.439 49.967C141.77 50.2963 141.936 50.8451 141.936 51.6134C141.936 52.3818 141.77 52.9306 141.439 53.2599C141.107 53.5892 140.555 53.7538 139.781 53.7538C139.008 53.7538 138.456 53.5892 138.124 53.2599Z" fill="#78C081"/>
<path d="M152.213 73.7088H148.965V56.5857H152.213V58.792C153.34 57.1455 155.307 56.3223 158.113 56.3223H159.604V59.3518H157.185C155.417 59.3518 154.147 59.8128 153.373 60.7348C152.6 61.6348 152.213 63.1057 152.213 65.1473V73.7088Z" fill="#78C081"/>
</svg>
